<svg xmlns="http://www.w3.org/2000/svg" viewBox="0 0 1696 276" width="1696" height="276">
  <defs>
    <radialGradient id="bg" cx="0.5" cy="0.4" r="0.78">
      <stop offset="0" stop-color="#242433"/>
      <stop offset="1" stop-color="#0C0C14"/>
    </radialGradient>
    <filter id="sh" x="-20%" y="-20%" width="140%" height="150%">
      <feDropShadow dx="0" dy="6" stdDeviation="6" flood-color="#000000" flood-opacity="0.45"/>
    </filter>
    <filter id="glow" x="-70%" y="-70%" width="240%" height="260%">
      <feDropShadow dx="0" dy="6" stdDeviation="6" flood-color="#000000" flood-opacity="0.45"/>
      <feDropShadow dx="0" dy="0" stdDeviation="9" flood-color="#D2B450" flood-opacity="0.7"/>
    </filter>
  </defs>
  <rect width="1696" height="276" fill="url(#bg)"/>
  <rect x="0" y="237" width="1696" height="2" fill="#D2B450" fill-opacity="0.13"/>
  <g filter="url(#sh)">
    <rect x="58" y="89" width="104" height="139" rx="11" fill="#9F7045"/>
    <rect x="58" y="82" width="104" height="139" rx="11" fill="#F7F0DD" stroke="rgba(27,27,42,0.40)" stroke-width="1"/>
    <g transform="translate(65.00,91.50) scale(0.3000)"><g transform="translate(0,-652.36216)">
    <g>
      <path style="fill:#000000;fill-opacity:1;fill-rule:evenodd;stroke:none;stroke-width:1px;stroke-linecap:butt;stroke-linejoin:miter;stroke-opacity:1" d="m 52.894354,722.32216 c -17.50696,-0.11271 -9.05357,18.89889 -0.90638,19.47161 56.421096,12.31796 92.339806,-11.63681 131.424976,-9.52501 20.67898,2.05086 53.82412,11.04089 61.51362,15.63063 1.63798,0.97768 3.97814,0.74093 4.99547,0.20017 8.33935,-4.39359 7.71325,-25.10483 4.35766,-36.85299 -0.93149,-3.48692 -8.66932,-7.71099 -15.05624,0.17833 -2.0941,2.11098 -10.8512,0.64005 -12.70543,-0.6243 -8.37862,-5.71316 -31.44441,-11.18628 -43.55827,-8.08264 -46.22841,9.75766 -82.7463,26.55006 -130.065406,19.6042 z"></path>
      <g transform="translate(1034.3429,648.88567)">
        <path d="m -973.89996,230.33452 c 101.51009,10.77646 95.08642,-15.76217 180.06105,-18.57669 18.88461,-2.74566 17.63524,-17.45957 -0.44879,-16.01707 -90.36841,2.24313 -58.77943,34.93937 -177.69318,16.09165 -28.99732,-5.17596 -24.26375,14.56756 -1.91908,18.50211 z" style="fill:#b93c3c;fill-opacity:1;fill-rule:evenodd;stroke:none;stroke-width:1px;stroke-linecap:butt;stroke-linejoin:miter;stroke-opacity:1"></path>
        <path d="m -882.63587,187.13598 c 1.31149,-3.92427 -7.9972,-10.18109 -13.21935,-3.47239 -4.83118,7.47941 -6.26401,12.15587 -10.86019,17.41995 -1.95819,2.39301 -2.24128,7.72517 -0.21694,9.26756 7.56831,6.19882 6.72442,4.78418 11.49965,14.73834 l 20.53068,-1.76196 c -6.51994,-8.58948 -7.59705,-7.83487 -10.13116,-16.42437 -1.16483,-9.32704 -0.80813,-10.17567 2.39731,-19.76713 z" style="fill:#b93c3c;fill-opacity:1;fill-rule:evenodd;stroke:none;stroke-width:1px;stroke-linecap:butt;stroke-linejoin:miter;stroke-opacity:1"></path>
        <path d="m -856.84278,149.17395 c -2.07241,-2.1647 -3.30957,-2.93207 -6.21343,0 l -15.39121,15.54072 c -1.34759,1.50043 -1.37158,3.7049 -0.26356,4.96996 l 9.16958,8.83355 c 4.35362,4.25203 5.46399,7.31404 2.89974,12.33575 -3.41972,9.61649 -5.98603,19.36747 -6.09656,24.7078 l 21.1809,-3.48708 c -3.95944,-9.81743 -3.87088,-12.35734 2.86523,-21.64648 5.55911,-6.32692 10.93309,-7.7739 5.99542,-16.41723 z" style="fill:#b93c3c;fill-opacity:1;fill-rule:evenodd;stroke:none;stroke-width:1px;stroke-linecap:butt;stroke-linejoin:miter;stroke-opacity:1"></path>
        <path d="m -834.43931,229.52922 c -2.37961,3.3e-4 -5.11545,0.35227 -7.98633,0.67579 -25.98124,4.23953 -44.63197,13.66167 -87.7832,12.14062 -5.84133,0.0296 -10.79709,3.10802 -10.5918,7.58984 0.41578,9.89302 7.70014,62.17673 8.30469,66.88868 0.85285,6.41756 9.79015,6.98803 10.96679,1.34179 0.21553,-1.03423 0.2214,-3.95763 0.0977,-7.99609 0.54781,-1.14352 1.39786,-2.02021 2.30859,-2.18359 l 56.98242,-5.0918 c 0.57955,0.007 1.01412,0.54453 1.32032,1.33008 -0.4418,20.09339 -0.68432,39.74185 -0.25391,46.62304 0.12358,1.52015 0.0514,3.12015 1.57031,4.48635 3.62687,3.0336 24.10801,1.3634 29.40821,-1.9473 1.46854,-1.0778 1.9999,-1.583 2.19726,-3.83006 -2.96095,-33.99173 -0.66802,-77.2174 1.60547,-110.87305 0.59643,-7.45293 -2.91134,-9.15502 -8.14648,-9.1543 z m -26.98047,16.76368 c 5.65219,-1.38928 2.02203,15.82857 0.0879,15.87695 l -58.82813,4.61133 c -5.12716,-1.0242 -4.8804,-13.06608 -1.42188,-13.22852 26.63848,-0.89616 35.74375,-3.18112 60.16211,-7.25976 z m -0.12891,29.15234 c 1.70565,-0.1306 2.01753,12.38455 -0.38086,12.58598 l -57.32031,4.79687 c -4.10107,-1.15065 -4.35221,-11.96168 -0.7793,-12.49218 z" style="fill:#b93c3c;fill-opacity:1;fill-rule:evenodd;stroke:none;stroke-width:1px;stroke-linecap:butt;stroke-linejoin:miter;stroke-opacity:1"></path>
        <path d="m -881.54242,246.32019 -19.23296,0.63476 -5.29091,90.55948 c -0.75114,10.29193 4.49195,20.6109 11.24113,20.7628 l 18.7421,-6.5465 z" style="fill:#b93c3c;fill-opacity:1;fill-rule:evenodd;stroke:none;stroke-width:1px;stroke-linecap:butt;stroke-linejoin:miter;stroke-opacity:1"></path>
        <path d="m -942.63635,354.94033 0.84624,8.0276 c 54.24616,18.2836 41.63669,-8.576 96.89447,-15.15097 l -0.63469,-4.92845 c -42.24197,-2.98719 -64.35269,13.17942 -97.10602,12.05182 z" style="fill:#b93c3c;fill-opacity:1;fill-rule:evenodd;stroke:none;stroke-width:1px;stroke-linecap:butt;stroke-linejoin:miter;stroke-opacity:1"></path>
        <path d="m -947.81557,295.50699 c -4.79067,-14.34919 -18.0476,-11.53087 -15.5695,0.88508 13.89663,43.4482 17.94173,67.49746 19.79888,70.85866 10.79236,18.2285 18.40255,13.4537 19.07847,-2.4339 0.11137,-4.8491 -14.23436,-43.49455 -23.30785,-69.30984 z" style="fill:#b93c3c;fill-opacity:1;fill-rule:evenodd;stroke:none;stroke-width:1px;stroke-linecap:butt;stroke-linejoin:miter;stroke-opacity:1"></path>
        <path d="m -990.50324,324.51204 c -8.35911,-1.30406 -7.60048,9.08422 -3.31653,11.28821 59.84729,26.46758 123.8383,-8.86564 177.96674,-5.69096 2.05825,0.36905 5.31253,1.56409 8.29438,3.20196 9.55669,5.04809 3.73393,19.51008 -0.97638,22.47878 -21.53617,9.8449 -16.51418,0.091 -40.67325,11.2497 -2.27744,1.4605 -8.25717,2.5966 -10.48172,1.6848 -8.94326,-2.9779 -16.30179,-8.1024 -22.15012,-12.6641 l -11.18847,5.6458 c 6.90544,8.6009 17.09988,12.6716 25.54075,16.3714 6.74722,3.2135 14.12571,2.8541 19.02891,3.0056 25.10802,0.3448 48.58902,-9.2971 60.40286,-10.7554 3.45799,-0.5303 7.48318,-6.5254 9.05051,-9.3096 9.69143,-15.8724 5.68822,-18.57024 -1.08565,-35.18913 -3.84938,-6.23214 -14.98024,-8.01151 -20.8275,-8.80455 -60.71768,-2.57426 -138.25414,18.81176 -189.58453,7.48749 z" style="fill:#b93c3c;fill-opacity:1;fill-rule:evenodd;stroke:none;stroke-width:1px;stroke-linecap:butt;stroke-linejoin:miter;stroke-opacity:1"></path>
      </g>
    </g>
  </g></g>
    <rect x="59.5" y="83.5" width="101" height="136" rx="9.5" fill="none" stroke="#ffffff" stroke-opacity="0.42" stroke-width="1"/>
  </g>
  <g filter="url(#sh)">
    <rect x="168" y="89" width="104" height="139" rx="11" fill="#9F7045"/>
    <rect x="168" y="82" width="104" height="139" rx="11" fill="#F7F0DD" stroke="rgba(27,27,42,0.40)" stroke-width="1"/>
    <g transform="translate(175.00,91.50) scale(0.3000)"><g transform="translate(0,-652.36216)">
    <g>
      <path style="fill:#000000;fill-opacity:1;fill-rule:evenodd;stroke:none;stroke-width:1px;stroke-linecap:butt;stroke-linejoin:miter;stroke-opacity:1" d="m 52.894354,722.32216 c -17.50696,-0.11271 -9.05357,18.89889 -0.90638,19.47161 56.421096,12.31796 92.339806,-11.63681 131.424976,-9.52501 20.67898,2.05086 53.82412,11.04089 61.51362,15.63063 1.63798,0.97768 3.97814,0.74093 4.99547,0.20017 8.33935,-4.39359 7.71325,-25.10483 4.35766,-36.85299 -0.93149,-3.48692 -8.66932,-7.71099 -15.05624,0.17833 -2.0941,2.11098 -10.8512,0.64005 -12.70543,-0.6243 -8.37862,-5.71316 -31.44441,-11.18628 -43.55827,-8.08264 -46.22841,9.75766 -82.7463,26.55006 -130.065406,19.6042 z"></path>
      <g transform="translate(1034.3429,648.88567)">
        <path d="m -973.89996,230.33452 c 101.51009,10.77646 95.08642,-15.76217 180.06105,-18.57669 18.88461,-2.74566 17.63524,-17.45957 -0.44879,-16.01707 -90.36841,2.24313 -58.77943,34.93937 -177.69318,16.09165 -28.99732,-5.17596 -24.26375,14.56756 -1.91908,18.50211 z" style="fill:#b93c3c;fill-opacity:1;fill-rule:evenodd;stroke:none;stroke-width:1px;stroke-linecap:butt;stroke-linejoin:miter;stroke-opacity:1"></path>
        <path d="m -882.63587,187.13598 c 1.31149,-3.92427 -7.9972,-10.18109 -13.21935,-3.47239 -4.83118,7.47941 -6.26401,12.15587 -10.86019,17.41995 -1.95819,2.39301 -2.24128,7.72517 -0.21694,9.26756 7.56831,6.19882 6.72442,4.78418 11.49965,14.73834 l 20.53068,-1.76196 c -6.51994,-8.58948 -7.59705,-7.83487 -10.13116,-16.42437 -1.16483,-9.32704 -0.80813,-10.17567 2.39731,-19.76713 z" style="fill:#b93c3c;fill-opacity:1;fill-rule:evenodd;stroke:none;stroke-width:1px;stroke-linecap:butt;stroke-linejoin:miter;stroke-opacity:1"></path>
        <path d="m -856.84278,149.17395 c -2.07241,-2.1647 -3.30957,-2.93207 -6.21343,0 l -15.39121,15.54072 c -1.34759,1.50043 -1.37158,3.7049 -0.26356,4.96996 l 9.16958,8.83355 c 4.35362,4.25203 5.46399,7.31404 2.89974,12.33575 -3.41972,9.61649 -5.98603,19.36747 -6.09656,24.7078 l 21.1809,-3.48708 c -3.95944,-9.81743 -3.87088,-12.35734 2.86523,-21.64648 5.55911,-6.32692 10.93309,-7.7739 5.99542,-16.41723 z" style="fill:#b93c3c;fill-opacity:1;fill-rule:evenodd;stroke:none;stroke-width:1px;stroke-linecap:butt;stroke-linejoin:miter;stroke-opacity:1"></path>
        <path d="m -834.43931,229.52922 c -2.37961,3.3e-4 -5.11545,0.35227 -7.98633,0.67579 -25.98124,4.23953 -44.63197,13.66167 -87.7832,12.14062 -5.84133,0.0296 -10.79709,3.10802 -10.5918,7.58984 0.41578,9.89302 7.70014,62.17673 8.30469,66.88868 0.85285,6.41756 9.79015,6.98803 10.96679,1.34179 0.21553,-1.03423 0.2214,-3.95763 0.0977,-7.99609 0.54781,-1.14352 1.39786,-2.02021 2.30859,-2.18359 l 56.98242,-5.0918 c 0.57955,0.007 1.01412,0.54453 1.32032,1.33008 -0.4418,20.09339 -0.68432,39.74185 -0.25391,46.62304 0.12358,1.52015 0.0514,3.12015 1.57031,4.48635 3.62687,3.0336 24.10801,1.3634 29.40821,-1.9473 1.46854,-1.0778 1.9999,-1.583 2.19726,-3.83006 -2.96095,-33.99173 -0.66802,-77.2174 1.60547,-110.87305 0.59643,-7.45293 -2.91134,-9.15502 -8.14648,-9.1543 z m -26.98047,16.76368 c 5.65219,-1.38928 2.02203,15.82857 0.0879,15.87695 l -58.82813,4.61133 c -5.12716,-1.0242 -4.8804,-13.06608 -1.42188,-13.22852 26.63848,-0.89616 35.74375,-3.18112 60.16211,-7.25976 z m -0.12891,29.15234 c 1.70565,-0.1306 2.01753,12.38455 -0.38086,12.58598 l -57.32031,4.79687 c -4.10107,-1.15065 -4.35221,-11.96168 -0.7793,-12.49218 z" style="fill:#b93c3c;fill-opacity:1;fill-rule:evenodd;stroke:none;stroke-width:1px;stroke-linecap:butt;stroke-linejoin:miter;stroke-opacity:1"></path>
        <path d="m -881.54242,246.32019 -19.23296,0.63476 -5.29091,90.55948 c -0.75114,10.29193 4.49195,20.6109 11.24113,20.7628 l 18.7421,-6.5465 z" style="fill:#b93c3c;fill-opacity:1;fill-rule:evenodd;stroke:none;stroke-width:1px;stroke-linecap:butt;stroke-linejoin:miter;stroke-opacity:1"></path>
        <path d="m -942.63635,354.94033 0.84624,8.0276 c 54.24616,18.2836 41.63669,-8.576 96.89447,-15.15097 l -0.63469,-4.92845 c -42.24197,-2.98719 -64.35269,13.17942 -97.10602,12.05182 z" style="fill:#b93c3c;fill-opacity:1;fill-rule:evenodd;stroke:none;stroke-width:1px;stroke-linecap:butt;stroke-linejoin:miter;stroke-opacity:1"></path>
        <path d="m -947.81557,295.50699 c -4.79067,-14.34919 -18.0476,-11.53087 -15.5695,0.88508 13.89663,43.4482 17.94173,67.49746 19.79888,70.85866 10.79236,18.2285 18.40255,13.4537 19.07847,-2.4339 0.11137,-4.8491 -14.23436,-43.49455 -23.30785,-69.30984 z" style="fill:#b93c3c;fill-opacity:1;fill-rule:evenodd;stroke:none;stroke-width:1px;stroke-linecap:butt;stroke-linejoin:miter;stroke-opacity:1"></path>
        <path d="m -990.50324,324.51204 c -8.35911,-1.30406 -7.60048,9.08422 -3.31653,11.28821 59.84729,26.46758 123.8383,-8.86564 177.96674,-5.69096 2.05825,0.36905 5.31253,1.56409 8.29438,3.20196 9.55669,5.04809 3.73393,19.51008 -0.97638,22.47878 -21.53617,9.8449 -16.51418,0.091 -40.67325,11.2497 -2.27744,1.4605 -8.25717,2.5966 -10.48172,1.6848 -8.94326,-2.9779 -16.30179,-8.1024 -22.15012,-12.6641 l -11.18847,5.6458 c 6.90544,8.6009 17.09988,12.6716 25.54075,16.3714 6.74722,3.2135 14.12571,2.8541 19.02891,3.0056 25.10802,0.3448 48.58902,-9.2971 60.40286,-10.7554 3.45799,-0.5303 7.48318,-6.5254 9.05051,-9.3096 9.69143,-15.8724 5.68822,-18.57024 -1.08565,-35.18913 -3.84938,-6.23214 -14.98024,-8.01151 -20.8275,-8.80455 -60.71768,-2.57426 -138.25414,18.81176 -189.58453,7.48749 z" style="fill:#b93c3c;fill-opacity:1;fill-rule:evenodd;stroke:none;stroke-width:1px;stroke-linecap:butt;stroke-linejoin:miter;stroke-opacity:1"></path>
      </g>
    </g>
  </g></g>
    <rect x="169.5" y="83.5" width="101" height="136" rx="9.5" fill="none" stroke="#ffffff" stroke-opacity="0.42" stroke-width="1"/>
  </g>
  <g filter="url(#sh)">
    <rect x="278" y="89" width="104" height="139" rx="11" fill="#9F7045"/>
    <rect x="278" y="82" width="104" height="139" rx="11" fill="#F7F0DD" stroke="rgba(27,27,42,0.40)" stroke-width="1"/>
    <g transform="translate(285.00,91.50) scale(0.3000)"><g transform="translate(0,-652.36216)">
    <g>
      <path style="fill:#000000;fill-opacity:1;fill-rule:evenodd;stroke:none;stroke-width:1px;stroke-linecap:butt;stroke-linejoin:miter;stroke-opacity:1" d="m 52.894354,722.32216 c -17.50696,-0.11271 -9.05357,18.89889 -0.90638,19.47161 56.421096,12.31796 92.339806,-11.63681 131.424976,-9.52501 20.67898,2.05086 53.82412,11.04089 61.51362,15.63063 1.63798,0.97768 3.97814,0.74093 4.99547,0.20017 8.33935,-4.39359 7.71325,-25.10483 4.35766,-36.85299 -0.93149,-3.48692 -8.66932,-7.71099 -15.05624,0.17833 -2.0941,2.11098 -10.8512,0.64005 -12.70543,-0.6243 -8.37862,-5.71316 -31.44441,-11.18628 -43.55827,-8.08264 -46.22841,9.75766 -82.7463,26.55006 -130.065406,19.6042 z"></path>
      <g transform="translate(1034.3429,648.88567)">
        <path d="m -973.89996,230.33452 c 101.51009,10.77646 95.08642,-15.76217 180.06105,-18.57669 18.88461,-2.74566 17.63524,-17.45957 -0.44879,-16.01707 -90.36841,2.24313 -58.77943,34.93937 -177.69318,16.09165 -28.99732,-5.17596 -24.26375,14.56756 -1.91908,18.50211 z" style="fill:#b93c3c;fill-opacity:1;fill-rule:evenodd;stroke:none;stroke-width:1px;stroke-linecap:butt;stroke-linejoin:miter;stroke-opacity:1"></path>
        <path d="m -882.63587,187.13598 c 1.31149,-3.92427 -7.9972,-10.18109 -13.21935,-3.47239 -4.83118,7.47941 -6.26401,12.15587 -10.86019,17.41995 -1.95819,2.39301 -2.24128,7.72517 -0.21694,9.26756 7.56831,6.19882 6.72442,4.78418 11.49965,14.73834 l 20.53068,-1.76196 c -6.51994,-8.58948 -7.59705,-7.83487 -10.13116,-16.42437 -1.16483,-9.32704 -0.80813,-10.17567 2.39731,-19.76713 z" style="fill:#b93c3c;fill-opacity:1;fill-rule:evenodd;stroke:none;stroke-width:1px;stroke-linecap:butt;stroke-linejoin:miter;stroke-opacity:1"></path>
        <path d="m -856.84278,149.17395 c -2.07241,-2.1647 -3.30957,-2.93207 -6.21343,0 l -15.39121,15.54072 c -1.34759,1.50043 -1.37158,3.7049 -0.26356,4.96996 l 9.16958,8.83355 c 4.35362,4.25203 5.46399,7.31404 2.89974,12.33575 -3.41972,9.61649 -5.98603,19.36747 -6.09656,24.7078 l 21.1809,-3.48708 c -3.95944,-9.81743 -3.87088,-12.35734 2.86523,-21.64648 5.55911,-6.32692 10.93309,-7.7739 5.99542,-16.41723 z" style="fill:#b93c3c;fill-opacity:1;fill-rule:evenodd;stroke:none;stroke-width:1px;stroke-linecap:butt;stroke-linejoin:miter;stroke-opacity:1"></path>
        <path d="m -834.43931,229.52922 c -2.37961,3.3e-4 -5.11545,0.35227 -7.98633,0.67579 -25.98124,4.23953 -44.63197,13.66167 -87.7832,12.14062 -5.84133,0.0296 -10.79709,3.10802 -10.5918,7.58984 0.41578,9.89302 7.70014,62.17673 8.30469,66.88868 0.85285,6.41756 9.79015,6.98803 10.96679,1.34179 0.21553,-1.03423 0.2214,-3.95763 0.0977,-7.99609 0.54781,-1.14352 1.39786,-2.02021 2.30859,-2.18359 l 56.98242,-5.0918 c 0.57955,0.007 1.01412,0.54453 1.32032,1.33008 -0.4418,20.09339 -0.68432,39.74185 -0.25391,46.62304 0.12358,1.52015 0.0514,3.12015 1.57031,4.48635 3.62687,3.0336 24.10801,1.3634 29.40821,-1.9473 1.46854,-1.0778 1.9999,-1.583 2.19726,-3.83006 -2.96095,-33.99173 -0.66802,-77.2174 1.60547,-110.87305 0.59643,-7.45293 -2.91134,-9.15502 -8.14648,-9.1543 z m -26.98047,16.76368 c 5.65219,-1.38928 2.02203,15.82857 0.0879,15.87695 l -58.82813,4.61133 c -5.12716,-1.0242 -4.8804,-13.06608 -1.42188,-13.22852 26.63848,-0.89616 35.74375,-3.18112 60.16211,-7.25976 z m -0.12891,29.15234 c 1.70565,-0.1306 2.01753,12.38455 -0.38086,12.58598 l -57.32031,4.79687 c -4.10107,-1.15065 -4.35221,-11.96168 -0.7793,-12.49218 z" style="fill:#b93c3c;fill-opacity:1;fill-rule:evenodd;stroke:none;stroke-width:1px;stroke-linecap:butt;stroke-linejoin:miter;stroke-opacity:1"></path>
        <path d="m -881.54242,246.32019 -19.23296,0.63476 -5.29091,90.55948 c -0.75114,10.29193 4.49195,20.6109 11.24113,20.7628 l 18.7421,-6.5465 z" style="fill:#b93c3c;fill-opacity:1;fill-rule:evenodd;stroke:none;stroke-width:1px;stroke-linecap:butt;stroke-linejoin:miter;stroke-opacity:1"></path>
        <path d="m -942.63635,354.94033 0.84624,8.0276 c 54.24616,18.2836 41.63669,-8.576 96.89447,-15.15097 l -0.63469,-4.92845 c -42.24197,-2.98719 -64.35269,13.17942 -97.10602,12.05182 z" style="fill:#b93c3c;fill-opacity:1;fill-rule:evenodd;stroke:none;stroke-width:1px;stroke-linecap:butt;stroke-linejoin:miter;stroke-opacity:1"></path>
        <path d="m -947.81557,295.50699 c -4.79067,-14.34919 -18.0476,-11.53087 -15.5695,0.88508 13.89663,43.4482 17.94173,67.49746 19.79888,70.85866 10.79236,18.2285 18.40255,13.4537 19.07847,-2.4339 0.11137,-4.8491 -14.23436,-43.49455 -23.30785,-69.30984 z" style="fill:#b93c3c;fill-opacity:1;fill-rule:evenodd;stroke:none;stroke-width:1px;stroke-linecap:butt;stroke-linejoin:miter;stroke-opacity:1"></path>
        <path d="m -990.50324,324.51204 c -8.35911,-1.30406 -7.60048,9.08422 -3.31653,11.28821 59.84729,26.46758 123.8383,-8.86564 177.96674,-5.69096 2.05825,0.36905 5.31253,1.56409 8.29438,3.20196 9.55669,5.04809 3.73393,19.51008 -0.97638,22.47878 -21.53617,9.8449 -16.51418,0.091 -40.67325,11.2497 -2.27744,1.4605 -8.25717,2.5966 -10.48172,1.6848 -8.94326,-2.9779 -16.30179,-8.1024 -22.15012,-12.6641 l -11.18847,5.6458 c 6.90544,8.6009 17.09988,12.6716 25.54075,16.3714 6.74722,3.2135 14.12571,2.8541 19.02891,3.0056 25.10802,0.3448 48.58902,-9.2971 60.40286,-10.7554 3.45799,-0.5303 7.48318,-6.5254 9.05051,-9.3096 9.69143,-15.8724 5.68822,-18.57024 -1.08565,-35.18913 -3.84938,-6.23214 -14.98024,-8.01151 -20.8275,-8.80455 -60.71768,-2.57426 -138.25414,18.81176 -189.58453,7.48749 z" style="fill:#b93c3c;fill-opacity:1;fill-rule:evenodd;stroke:none;stroke-width:1px;stroke-linecap:butt;stroke-linejoin:miter;stroke-opacity:1"></path>
      </g>
    </g>
  </g></g>
    <rect x="279.5" y="83.5" width="101" height="136" rx="9.5" fill="none" stroke="#ffffff" stroke-opacity="0.42" stroke-width="1"/>
  </g>
  <g filter="url(#sh)">
    <rect x="388" y="89" width="104" height="139" rx="11" fill="#9F7045"/>
    <rect x="388" y="82" width="104" height="139" rx="11" fill="#F7F0DD" stroke="rgba(27,27,42,0.40)" stroke-width="1"/>
    <g transform="translate(395.00,91.50) scale(0.3000)"><g transform="translate(0,-652.36216)">
    <g>
      <g transform="translate(1034.3429,648.88567)">
        <path d="m -973.89996,230.33452 c 101.51009,10.77646 95.08642,-15.76217 180.06105,-18.57669 18.88461,-2.74566 17.63524,-17.45957 -0.44879,-16.01707 -90.36841,2.24313 -58.77943,34.93937 -177.69318,16.09165 -28.99732,-5.17596 -24.26375,14.56756 -1.91908,18.50211 z" style="fill:#b93c3c;fill-opacity:1;fill-rule:evenodd;stroke:none;stroke-width:1px;stroke-linecap:butt;stroke-linejoin:miter;stroke-opacity:1"></path>
        <path d="m -882.63587,187.13598 c 1.31149,-3.92427 -7.9972,-10.18109 -13.21935,-3.47239 -4.83118,7.47941 -6.26401,12.15587 -10.86019,17.41995 -1.95819,2.39301 -2.24128,7.72517 -0.21694,9.26756 7.56831,6.19882 6.72442,4.78418 11.49965,14.73834 l 20.53068,-1.76196 c -6.51994,-8.58948 -7.59705,-7.83487 -10.13116,-16.42437 -1.16483,-9.32704 -0.80813,-10.17567 2.39731,-19.76713 z" style="fill:#b93c3c;fill-opacity:1;fill-rule:evenodd;stroke:none;stroke-width:1px;stroke-linecap:butt;stroke-linejoin:miter;stroke-opacity:1"></path>
        <path d="m -856.84278,149.17395 c -2.07241,-2.1647 -3.30957,-2.93207 -6.21343,0 l -15.39121,15.54072 c -1.34759,1.50043 -1.37158,3.7049 -0.26356,4.96996 l 9.16958,8.83355 c 4.35362,4.25203 5.46399,7.31404 2.89974,12.33575 -3.41972,9.61649 -5.98603,19.36747 -6.09656,24.7078 l 21.1809,-3.48708 c -3.95944,-9.81743 -3.87088,-12.35734 2.86523,-21.64648 5.55911,-6.32692 10.93309,-7.7739 5.99542,-16.41723 z" style="fill:#b93c3c;fill-opacity:1;fill-rule:evenodd;stroke:none;stroke-width:1px;stroke-linecap:butt;stroke-linejoin:miter;stroke-opacity:1"></path>
        <path d="m -834.43931,229.52922 c -2.37961,3.3e-4 -5.11545,0.35227 -7.98633,0.67579 -25.98124,4.23953 -44.63197,13.66167 -87.7832,12.14062 -5.84133,0.0296 -10.79709,3.10802 -10.5918,7.58984 0.41578,9.89302 7.70014,62.17673 8.30469,66.88868 0.85285,6.41756 9.79015,6.98803 10.96679,1.34179 0.21553,-1.03423 0.2214,-3.95763 0.0977,-7.99609 0.54781,-1.14352 1.39786,-2.02021 2.30859,-2.18359 l 56.98242,-5.0918 c 0.57955,0.007 1.01412,0.54453 1.32032,1.33008 -0.4418,20.09339 -0.68432,39.74185 -0.25391,46.62304 0.12358,1.52015 0.0514,3.12015 1.57031,4.48635 3.62687,3.0336 24.10801,1.3634 29.40821,-1.9473 1.46854,-1.0778 1.9999,-1.583 2.19726,-3.83006 -2.96095,-33.99173 -0.66802,-77.2174 1.60547,-110.87305 0.59643,-7.45293 -2.91134,-9.15502 -8.14648,-9.1543 z m -26.98047,16.76368 c 5.65219,-1.38928 2.02203,15.82857 0.0879,15.87695 l -58.82813,4.61133 c -5.12716,-1.0242 -4.8804,-13.06608 -1.42188,-13.22852 26.63848,-0.89616 35.74375,-3.18112 60.16211,-7.25976 z m -0.12891,29.15234 c 1.70565,-0.1306 2.01753,12.38455 -0.38086,12.58598 l -57.32031,4.79687 c -4.10107,-1.15065 -4.35221,-11.96168 -0.7793,-12.49218 z" style="fill:#b93c3c;fill-opacity:1;fill-rule:evenodd;stroke:none;stroke-width:1px;stroke-linecap:butt;stroke-linejoin:miter;stroke-opacity:1"></path>
        <path d="m -881.54242,246.32019 -19.23296,0.63476 -5.29091,90.55948 c -0.75114,10.29193 4.49195,20.6109 11.24113,20.7628 l 18.7421,-6.5465 z" style="fill:#b93c3c;fill-opacity:1;fill-rule:evenodd;stroke:none;stroke-width:1px;stroke-linecap:butt;stroke-linejoin:miter;stroke-opacity:1"></path>
        <path d="m -942.63635,354.94033 0.84624,8.0276 c 54.24616,18.2836 41.63669,-8.576 96.89447,-15.15097 l -0.63469,-4.92845 c -42.24197,-2.98719 -64.35269,13.17942 -97.10602,12.05182 z" style="fill:#b93c3c;fill-opacity:1;fill-rule:evenodd;stroke:none;stroke-width:1px;stroke-linecap:butt;stroke-linejoin:miter;stroke-opacity:1"></path>
        <path d="m -947.81557,295.50699 c -4.79067,-14.34919 -18.0476,-11.53087 -15.5695,0.88508 13.89663,43.4482 17.94173,67.49746 19.79888,70.85866 10.79236,18.2285 18.40255,13.4537 19.07847,-2.4339 0.11137,-4.8491 -14.23436,-43.49455 -23.30785,-69.30984 z" style="fill:#b93c3c;fill-opacity:1;fill-rule:evenodd;stroke:none;stroke-width:1px;stroke-linecap:butt;stroke-linejoin:miter;stroke-opacity:1"></path>
        <path d="m -990.50324,324.51204 c -8.35911,-1.30406 -7.60048,9.08422 -3.31653,11.28821 59.84729,26.46758 123.8383,-8.86564 177.96674,-5.69096 2.05825,0.36905 5.31253,1.56409 8.29438,3.20196 9.55669,5.04809 3.73393,19.51008 -0.97638,22.47878 -21.53617,9.8449 -16.51418,0.091 -40.67325,11.2497 -2.27744,1.4605 -8.25717,2.5966 -10.48172,1.6848 -8.94326,-2.9779 -16.30179,-8.1024 -22.15012,-12.6641 l -11.18847,5.6458 c 6.90544,8.6009 17.09988,12.6716 25.54075,16.3714 6.74722,3.2135 14.12571,2.8541 19.02891,3.0056 25.10802,0.3448 48.58902,-9.2971 60.40286,-10.7554 3.45799,-0.5303 7.48318,-6.5254 9.05051,-9.3096 9.69143,-15.8724 5.68822,-18.57024 -1.08565,-35.18913 -3.84938,-6.23214 -14.98024,-8.01151 -20.8275,-8.80455 -60.71768,-2.57426 -138.25414,18.81176 -189.58453,7.48749 z" style="fill:#b93c3c;fill-opacity:1;fill-rule:evenodd;stroke:none;stroke-width:1px;stroke-linecap:butt;stroke-linejoin:miter;stroke-opacity:1"></path>
      </g>
      <g transform="translate(4.91793,1.7e-5)">
        <path d="m 54.10195,754.95801 c -15.912011,-3.454 -14.930316,14.04117 -0.938626,17.70218 58.428346,18.96345 99.345046,-16.31334 139.820716,-15.4839 20.30987,1.1749 35.04555,16.99112 53.7222,14.62781 34.98213,-7.283 16.1489,-30.75749 -1.64636,-33.70036 -14.28494,-2.45876 -27.33316,-7.5262 -52.90732,-3.77106 -49.69642,9.55913 -98.75938,31.71943 -138.05061,20.62533 z" style="fill:#000000;fill-opacity:1;fill-rule:evenodd;stroke:none;stroke-width:1px;stroke-linecap:butt;stroke-linejoin:miter;stroke-opacity:1"></path>
        <path style="fill:#000000;fill-opacity:1;fill-rule:evenodd;stroke:none;stroke-width:1px;stroke-linecap:butt;stroke-linejoin:miter;stroke-opacity:1" d="m 93.901577,699.2551 c -6.43699,1.43264 -9.591843,15.77707 0.387269,17.60976 34.313284,-0.0935 73.545784,-13.35894 112.423824,-18.66638 6.63976,-1.36439 7.75026,-14.50373 8.19395,-19.04081 1.47048,-7.12488 -3.42052,-9.17959 -9.24235,-7.88429 -38.85688,9.78523 -72.90583,22.04384 -111.762693,27.98172 z"></path>
      </g>
    </g>
  </g></g>
    <rect x="389.5" y="83.5" width="101" height="136" rx="9.5" fill="none" stroke="#ffffff" stroke-opacity="0.42" stroke-width="1"/>
  </g>
  <g filter="url(#sh)">
    <rect x="498" y="89" width="104" height="139" rx="11" fill="#9F7045"/>
    <rect x="498" y="82" width="104" height="139" rx="11" fill="#F7F0DD" stroke="rgba(27,27,42,0.40)" stroke-width="1"/>
    <g transform="translate(505.00,91.50) scale(0.3000)"><g transform="translate(0,-652.36216)">
    <g>
      <g transform="translate(1034.3429,648.88567)">
        <path d="m -973.89996,230.33452 c 101.51009,10.77646 95.08642,-15.76217 180.06105,-18.57669 18.88461,-2.74566 17.63524,-17.45957 -0.44879,-16.01707 -90.36841,2.24313 -58.77943,34.93937 -177.69318,16.09165 -28.99732,-5.17596 -24.26375,14.56756 -1.91908,18.50211 z" style="fill:#b93c3c;fill-opacity:1;fill-rule:evenodd;stroke:none;stroke-width:1px;stroke-linecap:butt;stroke-linejoin:miter;stroke-opacity:1"></path>
        <path d="m -882.63587,187.13598 c 1.31149,-3.92427 -7.9972,-10.18109 -13.21935,-3.47239 -4.83118,7.47941 -6.26401,12.15587 -10.86019,17.41995 -1.95819,2.39301 -2.24128,7.72517 -0.21694,9.26756 7.56831,6.19882 6.72442,4.78418 11.49965,14.73834 l 20.53068,-1.76196 c -6.51994,-8.58948 -7.59705,-7.83487 -10.13116,-16.42437 -1.16483,-9.32704 -0.80813,-10.17567 2.39731,-19.76713 z" style="fill:#b93c3c;fill-opacity:1;fill-rule:evenodd;stroke:none;stroke-width:1px;stroke-linecap:butt;stroke-linejoin:miter;stroke-opacity:1"></path>
        <path d="m -856.84278,149.17395 c -2.07241,-2.1647 -3.30957,-2.93207 -6.21343,0 l -15.39121,15.54072 c -1.34759,1.50043 -1.37158,3.7049 -0.26356,4.96996 l 9.16958,8.83355 c 4.35362,4.25203 5.46399,7.31404 2.89974,12.33575 -3.41972,9.61649 -5.98603,19.36747 -6.09656,24.7078 l 21.1809,-3.48708 c -3.95944,-9.81743 -3.87088,-12.35734 2.86523,-21.64648 5.55911,-6.32692 10.93309,-7.7739 5.99542,-16.41723 z" style="fill:#b93c3c;fill-opacity:1;fill-rule:evenodd;stroke:none;stroke-width:1px;stroke-linecap:butt;stroke-linejoin:miter;stroke-opacity:1"></path>
        <path d="m -834.43931,229.52922 c -2.37961,3.3e-4 -5.11545,0.35227 -7.98633,0.67579 -25.98124,4.23953 -44.63197,13.66167 -87.7832,12.14062 -5.84133,0.0296 -10.79709,3.10802 -10.5918,7.58984 0.41578,9.89302 7.70014,62.17673 8.30469,66.88868 0.85285,6.41756 9.79015,6.98803 10.96679,1.34179 0.21553,-1.03423 0.2214,-3.95763 0.0977,-7.99609 0.54781,-1.14352 1.39786,-2.02021 2.30859,-2.18359 l 56.98242,-5.0918 c 0.57955,0.007 1.01412,0.54453 1.32032,1.33008 -0.4418,20.09339 -0.68432,39.74185 -0.25391,46.62304 0.12358,1.52015 0.0514,3.12015 1.57031,4.48635 3.62687,3.0336 24.10801,1.3634 29.40821,-1.9473 1.46854,-1.0778 1.9999,-1.583 2.19726,-3.83006 -2.96095,-33.99173 -0.66802,-77.2174 1.60547,-110.87305 0.59643,-7.45293 -2.91134,-9.15502 -8.14648,-9.1543 z m -26.98047,16.76368 c 5.65219,-1.38928 2.02203,15.82857 0.0879,15.87695 l -58.82813,4.61133 c -5.12716,-1.0242 -4.8804,-13.06608 -1.42188,-13.22852 26.63848,-0.89616 35.74375,-3.18112 60.16211,-7.25976 z m -0.12891,29.15234 c 1.70565,-0.1306 2.01753,12.38455 -0.38086,12.58598 l -57.32031,4.79687 c -4.10107,-1.15065 -4.35221,-11.96168 -0.7793,-12.49218 z" style="fill:#b93c3c;fill-opacity:1;fill-rule:evenodd;stroke:none;stroke-width:1px;stroke-linecap:butt;stroke-linejoin:miter;stroke-opacity:1"></path>
        <path d="m -881.54242,246.32019 -19.23296,0.63476 -5.29091,90.55948 c -0.75114,10.29193 4.49195,20.6109 11.24113,20.7628 l 18.7421,-6.5465 z" style="fill:#b93c3c;fill-opacity:1;fill-rule:evenodd;stroke:none;stroke-width:1px;stroke-linecap:butt;stroke-linejoin:miter;stroke-opacity:1"></path>
        <path d="m -942.63635,354.94033 0.84624,8.0276 c 54.24616,18.2836 41.63669,-8.576 96.89447,-15.15097 l -0.63469,-4.92845 c -42.24197,-2.98719 -64.35269,13.17942 -97.10602,12.05182 z" style="fill:#b93c3c;fill-opacity:1;fill-rule:evenodd;stroke:none;stroke-width:1px;stroke-linecap:butt;stroke-linejoin:miter;stroke-opacity:1"></path>
        <path d="m -947.81557,295.50699 c -4.79067,-14.34919 -18.0476,-11.53087 -15.5695,0.88508 13.89663,43.4482 17.94173,67.49746 19.79888,70.85866 10.79236,18.2285 18.40255,13.4537 19.07847,-2.4339 0.11137,-4.8491 -14.23436,-43.49455 -23.30785,-69.30984 z" style="fill:#b93c3c;fill-opacity:1;fill-rule:evenodd;stroke:none;stroke-width:1px;stroke-linecap:butt;stroke-linejoin:miter;stroke-opacity:1"></path>
        <path d="m -990.50324,324.51204 c -8.35911,-1.30406 -7.60048,9.08422 -3.31653,11.28821 59.84729,26.46758 123.8383,-8.86564 177.96674,-5.69096 2.05825,0.36905 5.31253,1.56409 8.29438,3.20196 9.55669,5.04809 3.73393,19.51008 -0.97638,22.47878 -21.53617,9.8449 -16.51418,0.091 -40.67325,11.2497 -2.27744,1.4605 -8.25717,2.5966 -10.48172,1.6848 -8.94326,-2.9779 -16.30179,-8.1024 -22.15012,-12.6641 l -11.18847,5.6458 c 6.90544,8.6009 17.09988,12.6716 25.54075,16.3714 6.74722,3.2135 14.12571,2.8541 19.02891,3.0056 25.10802,0.3448 48.58902,-9.2971 60.40286,-10.7554 3.45799,-0.5303 7.48318,-6.5254 9.05051,-9.3096 9.69143,-15.8724 5.68822,-18.57024 -1.08565,-35.18913 -3.84938,-6.23214 -14.98024,-8.01151 -20.8275,-8.80455 -60.71768,-2.57426 -138.25414,18.81176 -189.58453,7.48749 z" style="fill:#b93c3c;fill-opacity:1;fill-rule:evenodd;stroke:none;stroke-width:1px;stroke-linecap:butt;stroke-linejoin:miter;stroke-opacity:1"></path>
      </g>
      <g transform="translate(-0.31322,0)">
        <path style="fill:#000000;fill-opacity:1;fill-rule:evenodd;stroke:none;stroke-width:1px;stroke-linecap:butt;stroke-linejoin:miter;stroke-opacity:1" d="m 62.315839,776.95528 c -15.657846,0.14446 -14.691832,16.45959 -0.923632,17.70218 58.869103,1.54525 97.758173,-27.33279 137.587323,-22.02469 19.98546,1.1749 39.02169,17.27551 57.40002,14.91219 9.42656,-7.96723 7.5453,-30.35197 -1.24208,-31.70969 -49.95288,-9.82532 -27.62306,-12.21431 -56.97614,-6.04611 -48.90261,9.55913 -97.1292,27.16612 -135.845491,27.16612 z"></path>
        <path d="m 89.661002,684.20854 c -6.91223,1.5492 -10.30002,17.06074 0.41586,19.04255 36.846648,6.14772 78.975718,-10.70797 120.724168,-20.18515 7.12998,-1.4754 10.94035,-13.12436 11.4168,-18.03059 1.57904,-7.70459 -6.29095,-12.48591 -12.5426,-11.08522 -41.00285,16.91408 -78.10031,31.2545 -120.014228,30.25841 z" style="fill:#000000;fill-opacity:1;fill-rule:evenodd;stroke:none;stroke-width:1px;stroke-linecap:butt;stroke-linejoin:miter;stroke-opacity:1"></path>
        <path style="fill:#000000;fill-opacity:1;fill-rule:evenodd;stroke:none;stroke-width:1px;stroke-linecap:butt;stroke-linejoin:miter;stroke-opacity:1" d="m 89.841656,728.57665 c -6.115829,1.42706 -9.113286,15.71566 0.367952,17.54122 32.601292,5.66302 74.422712,-9.86375 111.361042,-18.59373 6.30848,-1.35909 7.36358,-14.44728 7.78513,-18.9667 1.39711,-7.09715 -3.24986,-9.14386 -8.78122,-7.85359 -36.27862,15.58055 -73.64819,28.79036 -110.732904,27.8728 z"></path>
      </g>
    </g>
  </g></g>
    <rect x="499.5" y="83.5" width="101" height="136" rx="9.5" fill="none" stroke="#ffffff" stroke-opacity="0.42" stroke-width="1"/>
  </g>
  <g filter="url(#sh)">
    <rect x="608" y="89" width="104" height="139" rx="11" fill="#9F7045"/>
    <rect x="608" y="82" width="104" height="139" rx="11" fill="#F7F0DD" stroke="rgba(27,27,42,0.40)" stroke-width="1"/>
    <g transform="translate(615.00,91.50) scale(0.3000)"><g transform="translate(0,-652.36216)">
    <g>
      <g transform="translate(1034.3429,648.88567)">
        <path d="m -973.89996,230.33452 c 101.51009,10.77646 95.08642,-15.76217 180.06105,-18.57669 18.88461,-2.74566 17.63524,-17.45957 -0.44879,-16.01707 -90.36841,2.24313 -58.77943,34.93937 -177.69318,16.09165 -28.99732,-5.17596 -24.26375,14.56756 -1.91908,18.50211 z" style="fill:#b93c3c;fill-opacity:1;fill-rule:evenodd;stroke:none;stroke-width:1px;stroke-linecap:butt;stroke-linejoin:miter;stroke-opacity:1"></path>
        <path d="m -882.63587,187.13598 c 1.31149,-3.92427 -7.9972,-10.18109 -13.21935,-3.47239 -4.83118,7.47941 -6.26401,12.15587 -10.86019,17.41995 -1.95819,2.39301 -2.24128,7.72517 -0.21694,9.26756 7.56831,6.19882 6.72442,4.78418 11.49965,14.73834 l 20.53068,-1.76196 c -6.51994,-8.58948 -7.59705,-7.83487 -10.13116,-16.42437 -1.16483,-9.32704 -0.80813,-10.17567 2.39731,-19.76713 z" style="fill:#b93c3c;fill-opacity:1;fill-rule:evenodd;stroke:none;stroke-width:1px;stroke-linecap:butt;stroke-linejoin:miter;stroke-opacity:1"></path>
        <path d="m -856.84278,149.17395 c -2.07241,-2.1647 -3.30957,-2.93207 -6.21343,0 l -15.39121,15.54072 c -1.34759,1.50043 -1.37158,3.7049 -0.26356,4.96996 l 9.16958,8.83355 c 4.35362,4.25203 5.46399,7.31404 2.89974,12.33575 -3.41972,9.61649 -5.98603,19.36747 -6.09656,24.7078 l 21.1809,-3.48708 c -3.95944,-9.81743 -3.87088,-12.35734 2.86523,-21.64648 5.55911,-6.32692 10.93309,-7.7739 5.99542,-16.41723 z" style="fill:#b93c3c;fill-opacity:1;fill-rule:evenodd;stroke:none;stroke-width:1px;stroke-linecap:butt;stroke-linejoin:miter;stroke-opacity:1"></path>
        <path d="m -834.43931,229.52922 c -2.37961,3.3e-4 -5.11545,0.35227 -7.98633,0.67579 -25.98124,4.23953 -44.63197,13.66167 -87.7832,12.14062 -5.84133,0.0296 -10.79709,3.10802 -10.5918,7.58984 0.41578,9.89302 7.70014,62.17673 8.30469,66.88868 0.85285,6.41756 9.79015,6.98803 10.96679,1.34179 0.21553,-1.03423 0.2214,-3.95763 0.0977,-7.99609 0.54781,-1.14352 1.39786,-2.02021 2.30859,-2.18359 l 56.98242,-5.0918 c 0.57955,0.007 1.01412,0.54453 1.32032,1.33008 -0.4418,20.09339 -0.68432,39.74185 -0.25391,46.62304 0.12358,1.52015 0.0514,3.12015 1.57031,4.48635 3.62687,3.0336 24.10801,1.3634 29.40821,-1.9473 1.46854,-1.0778 1.9999,-1.583 2.19726,-3.83006 -2.96095,-33.99173 -0.66802,-77.2174 1.60547,-110.87305 0.59643,-7.45293 -2.91134,-9.15502 -8.14648,-9.1543 z m -26.98047,16.76368 c 5.65219,-1.38928 2.02203,15.82857 0.0879,15.87695 l -58.82813,4.61133 c -5.12716,-1.0242 -4.8804,-13.06608 -1.42188,-13.22852 26.63848,-0.89616 35.74375,-3.18112 60.16211,-7.25976 z m -0.12891,29.15234 c 1.70565,-0.1306 2.01753,12.38455 -0.38086,12.58598 l -57.32031,4.79687 c -4.10107,-1.15065 -4.35221,-11.96168 -0.7793,-12.49218 z" style="fill:#b93c3c;fill-opacity:1;fill-rule:evenodd;stroke:none;stroke-width:1px;stroke-linecap:butt;stroke-linejoin:miter;stroke-opacity:1"></path>
        <path d="m -881.54242,246.32019 -19.23296,0.63476 -5.29091,90.55948 c -0.75114,10.29193 4.49195,20.6109 11.24113,20.7628 l 18.7421,-6.5465 z" style="fill:#b93c3c;fill-opacity:1;fill-rule:evenodd;stroke:none;stroke-width:1px;stroke-linecap:butt;stroke-linejoin:miter;stroke-opacity:1"></path>
        <path d="m -942.63635,354.94033 0.84624,8.0276 c 54.24616,18.2836 41.63669,-8.576 96.89447,-15.15097 l -0.63469,-4.92845 c -42.24197,-2.98719 -64.35269,13.17942 -97.10602,12.05182 z" style="fill:#b93c3c;fill-opacity:1;fill-rule:evenodd;stroke:none;stroke-width:1px;stroke-linecap:butt;stroke-linejoin:miter;stroke-opacity:1"></path>
        <path d="m -947.81557,295.50699 c -4.79067,-14.34919 -18.0476,-11.53087 -15.5695,0.88508 13.89663,43.4482 17.94173,67.49746 19.79888,70.85866 10.79236,18.2285 18.40255,13.4537 19.07847,-2.4339 0.11137,-4.8491 -14.23436,-43.49455 -23.30785,-69.30984 z" style="fill:#b93c3c;fill-opacity:1;fill-rule:evenodd;stroke:none;stroke-width:1px;stroke-linecap:butt;stroke-linejoin:miter;stroke-opacity:1"></path>
        <path d="m -990.50324,324.51204 c -8.35911,-1.30406 -7.60048,9.08422 -3.31653,11.28821 59.84729,26.46758 123.8383,-8.86564 177.96674,-5.69096 2.05825,0.36905 5.31253,1.56409 8.29438,3.20196 9.55669,5.04809 3.73393,19.51008 -0.97638,22.47878 -21.53617,9.8449 -16.51418,0.091 -40.67325,11.2497 -2.27744,1.4605 -8.25717,2.5966 -10.48172,1.6848 -8.94326,-2.9779 -16.30179,-8.1024 -22.15012,-12.6641 l -11.18847,5.6458 c 6.90544,8.6009 17.09988,12.6716 25.54075,16.3714 6.74722,3.2135 14.12571,2.8541 19.02891,3.0056 25.10802,0.3448 48.58902,-9.2971 60.40286,-10.7554 3.45799,-0.5303 7.48318,-6.5254 9.05051,-9.3096 9.69143,-15.8724 5.68822,-18.57024 -1.08565,-35.18913 -3.84938,-6.23214 -14.98024,-8.01151 -20.8275,-8.80455 -60.71768,-2.57426 -138.25414,18.81176 -189.58453,7.48749 z" style="fill:#b93c3c;fill-opacity:1;fill-rule:evenodd;stroke:none;stroke-width:1px;stroke-linecap:butt;stroke-linejoin:miter;stroke-opacity:1"></path>
      </g>
      <g transform="matrix(1.0799971,0,0,0.95914962,-11.6365,29.661665)">
        <path d="m 196.19505,673.02473 c -9.70415,0.0945 -20.98362,1.03933 -34.2754,3.08984 -29.38399,5.48615 -80.089202,30.0434 -95.829882,22.55177 -6.567867,-3.3436 -14.090403,-8.27415 -20.985677,-12.27256 -8.729299,-5.37629 -14.17276,-2.69115 -9.791015,9.30469 l 57.799938,75.62605 c 3.70119,6.32026 10.899816,5.21258 16.349606,3.75977 38.28834,-15.07486 61.25773,-10.00154 93.05676,0.3823 7.35538,2.22347 10.83485,0.7596 16.22976,-3.87925 18.04071,-17.1987 43.53355,-41.93845 43.99278,-49.60753 0.55707,-3.54122 3.24357,-24.4691 -2.90039,-29.08008 -14.41978,-9.70663 -28.98883,-20.21243 -63.64648,-19.875 z m 31.33789,29.87304 c 4.08988,3.92198 3.09909,9.22014 0.34961,13.98829 -7.24574,13.14893 -13.56284,23.15248 -25.93176,34.46169 -2.13947,1.74062 -4.25728,3.52934 -6.6327,3.65745 -14.6062,-1.95055 -5.84969,-12.66022 -76.9375,1.36914 -4.84299,0.0955 -6.99204,-0.94675 -8.74414,-2.79688 L 82.53294,715.28254 c -2.633261,-5.43934 2.487319,-4.52388 5.771484,-4.54688 39.937986,0.11061 96.302226,-40.71123 139.228516,-7.83789 z" style="fill:#000000;fill-opacity:1;fill-rule:evenodd;stroke:none;stroke-width:1px;stroke-linecap:butt;stroke-linejoin:miter;stroke-opacity:1"></path>
        <path d="m 119.85989,691.9388 c 2.81402,21.7202 3.57454,43.44039 3.9963,65.16059 l 15.04843,-0.49458 c 14.54041,-23.12051 8.78886,-45.48553 5.44946,-68.62263 z" style="fill:#000000;fill-opacity:1;fill-rule:evenodd;stroke:none;stroke-width:1px;stroke-linecap:butt;stroke-linejoin:miter;stroke-opacity:1"></path>
        <path d="m 193.61653,674.85102 c -4.14094,-18.99273 -21.21134,-9.06923 -23.27679,-0.597 l -12.56525,80.37248 15.70606,0.98916 c 10.27333,-28.16682 22.45499,-64.53631 27.78763,-71.46645 z" style="fill:#000000;fill-opacity:1;fill-rule:evenodd;stroke:none;stroke-width:1px;stroke-linecap:butt;stroke-linejoin:miter;stroke-opacity:1"></path>
      </g>
    </g>
  </g></g>
    <rect x="609.5" y="83.5" width="101" height="136" rx="9.5" fill="none" stroke="#ffffff" stroke-opacity="0.42" stroke-width="1"/>
  </g>
  <g filter="url(#sh)">
    <rect x="718" y="89" width="104" height="139" rx="11" fill="#9F7045"/>
    <rect x="718" y="82" width="104" height="139" rx="11" fill="#F7F0DD" stroke="rgba(27,27,42,0.40)" stroke-width="1"/>
    <g transform="translate(725.00,91.50) scale(0.3000)"><g transform="translate(0,-652.36216)">
    <g transform="translate(1034.3429,648.88567)">
      <path style="fill:#b93c3c;fill-opacity:1;fill-rule:evenodd;stroke:none;stroke-width:1px;stroke-linecap:butt;stroke-linejoin:miter;stroke-opacity:1" d="m -973.89996,230.33452 c 101.51009,10.77646 95.08642,-15.76217 180.06105,-18.57669 18.88461,-2.74566 17.63524,-17.45957 -0.44879,-16.01707 -90.36841,2.24313 -58.77943,34.93937 -177.69318,16.09165 -28.99732,-5.17596 -24.26375,14.56756 -1.91908,18.50211 z"></path>
      <path style="fill:#b93c3c;fill-opacity:1;fill-rule:evenodd;stroke:none;stroke-width:1px;stroke-linecap:butt;stroke-linejoin:miter;stroke-opacity:1" d="m -882.63587,187.13598 c 1.31149,-3.92427 -7.9972,-10.18109 -13.21935,-3.47239 -4.83118,7.47941 -6.26401,12.15587 -10.86019,17.41995 -1.95819,2.39301 -2.24128,7.72517 -0.21694,9.26756 7.56831,6.19882 6.72442,4.78418 11.49965,14.73834 l 20.53068,-1.76196 c -6.51994,-8.58948 -7.59705,-7.83487 -10.13116,-16.42437 -1.16483,-9.32704 -0.80813,-10.17567 2.39731,-19.76713 z"></path>
      <path style="fill:#b93c3c;fill-opacity:1;fill-rule:evenodd;stroke:none;stroke-width:1px;stroke-linecap:butt;stroke-linejoin:miter;stroke-opacity:1" d="m -856.84278,149.17395 c -2.07241,-2.1647 -3.30957,-2.93207 -6.21343,0 l -15.39121,15.54072 c -1.34759,1.50043 -1.37158,3.7049 -0.26356,4.96996 l 9.16958,8.83355 c 4.35362,4.25203 5.46399,7.31404 2.89974,12.33575 -3.41972,9.61649 -5.98603,19.36747 -6.09656,24.7078 l 21.1809,-3.48708 c -3.95944,-9.81743 -3.87088,-12.35734 2.86523,-21.64648 5.55911,-6.32692 10.93309,-7.7739 5.99542,-16.41723 z"></path>
      <path style="fill:#b93c3c;fill-opacity:1;fill-rule:evenodd;stroke:none;stroke-width:1px;stroke-linecap:butt;stroke-linejoin:miter;stroke-opacity:1" d="m -834.43931,229.52922 c -2.37961,3.3e-4 -5.11545,0.35227 -7.98633,0.67579 -25.98124,4.23953 -44.63197,13.66167 -87.7832,12.14062 -5.84133,0.0296 -10.79709,3.10802 -10.5918,7.58984 0.41578,9.89302 7.70014,62.17673 8.30469,66.88868 0.85285,6.41756 9.79015,6.98803 10.96679,1.34179 0.21553,-1.03423 0.2214,-3.95763 0.0977,-7.99609 0.54781,-1.14352 1.39786,-2.02021 2.30859,-2.18359 l 56.98242,-5.0918 c 0.57955,0.007 1.01412,0.54453 1.32032,1.33008 -0.4418,20.09339 -0.68432,39.74185 -0.25391,46.62304 0.12358,1.52015 0.0514,3.12015 1.57031,4.48635 3.62687,3.0336 24.10801,1.3634 29.40821,-1.9473 1.46854,-1.0778 1.9999,-1.583 2.19726,-3.83006 -2.96095,-33.99173 -0.66802,-77.2174 1.60547,-110.87305 0.59643,-7.45293 -2.91134,-9.15502 -8.14648,-9.1543 z m -26.98047,16.76368 c 5.65219,-1.38928 2.02203,15.82857 0.0879,15.87695 l -58.82813,4.61133 c -5.12716,-1.0242 -4.8804,-13.06608 -1.42188,-13.22852 26.63848,-0.89616 35.74375,-3.18112 60.16211,-7.25976 z m -0.12891,29.15234 c 1.70565,-0.1306 2.01753,12.38455 -0.38086,12.58598 l -57.32031,4.79687 c -4.10107,-1.15065 -4.35221,-11.96168 -0.7793,-12.49218 z"></path>
      <path style="fill:#b93c3c;fill-opacity:1;fill-rule:evenodd;stroke:none;stroke-width:1px;stroke-linecap:butt;stroke-linejoin:miter;stroke-opacity:1" d="m -881.54242,246.32019 -19.23296,0.63476 -5.29091,90.55948 c -0.75114,10.29193 4.49195,20.6109 11.24113,20.7628 l 18.7421,-6.5465 z"></path>
      <path style="fill:#b93c3c;fill-opacity:1;fill-rule:evenodd;stroke:none;stroke-width:1px;stroke-linecap:butt;stroke-linejoin:miter;stroke-opacity:1" d="m -942.63635,354.94033 0.84624,8.0276 c 54.24616,18.2836 41.63669,-8.576 96.89447,-15.15097 l -0.63469,-4.92845 c -42.24197,-2.98719 -64.35269,13.17942 -97.10602,12.05182 z"></path>
      <path style="fill:#b93c3c;fill-opacity:1;fill-rule:evenodd;stroke:none;stroke-width:1px;stroke-linecap:butt;stroke-linejoin:miter;stroke-opacity:1" d="m -947.81557,295.50699 c -4.79067,-14.34919 -18.0476,-11.53087 -15.5695,0.88508 13.89663,43.4482 17.94173,67.49746 19.79888,70.85866 10.79236,18.2285 18.40255,13.4537 19.07847,-2.4339 0.11137,-4.8491 -14.23436,-43.49455 -23.30785,-69.30984 z"></path>
      <path style="fill:#b93c3c;fill-opacity:1;fill-rule:evenodd;stroke:none;stroke-width:1px;stroke-linecap:butt;stroke-linejoin:miter;stroke-opacity:1" d="m -990.50324,324.51204 c -8.35911,-1.30406 -7.60048,9.08422 -3.31653,11.28821 59.84729,26.46758 123.8383,-8.86564 177.96674,-5.69096 2.05825,0.36905 5.31253,1.56409 8.29438,3.20196 9.55669,5.04809 3.73393,19.51008 -0.97638,22.47878 -21.53617,9.8449 -16.51418,0.091 -40.67325,11.2497 -2.27744,1.4605 -8.25717,2.5966 -10.48172,1.6848 -8.94326,-2.9779 -16.30179,-8.1024 -22.15012,-12.6641 l -11.18847,5.6458 c 6.90544,8.6009 17.09988,12.6716 25.54075,16.3714 6.74722,3.2135 14.12571,2.8541 19.02891,3.0056 25.10802,0.3448 48.58902,-9.2971 60.40286,-10.7554 3.45799,-0.5303 7.48318,-6.5254 9.05051,-9.3096 9.69143,-15.8724 5.68822,-18.57024 -1.08565,-35.18913 -3.84938,-6.23214 -14.98024,-8.01151 -20.8275,-8.80455 -60.71768,-2.57426 -138.25414,18.81176 -189.58453,7.48749 z"></path>
    </g>
    <g transform="matrix(0.88299048,0,0,0.98816906,13.1912,3.648797)">
      <path style="fill:#000000;fill-opacity:1;fill-rule:evenodd;stroke:none;stroke-width:1px;stroke-linecap:butt;stroke-linejoin:miter;stroke-opacity:1" d="m 120.27793,677.75471 c -7.8385,4.68172 -12.0636,5.88462 -15.28389,15.76934 -0.51069,1.5984 -0.89802,7.87579 1.45828,12.18189 20.42172,17.87538 -53.387678,56.71165 -79.77403,73.05807 -17.1742039,10.05844 -11.334569,21.33928 11.1927,11.45291 29.066321,-12.07831 80.29683,-26.14346 90.36555,-62.50547 0.0974,-3.98883 3.07469,-5.6683 7.33092,-6.61801 6.5143,-1.42607 0.79247,-27.81439 -2.95115,-34.69169 -3.74364,-6.87729 -9.80421,-9.95916 -12.33838,-8.64704 z"></path>
      <path style="fill:#000000;fill-opacity:1;fill-rule:evenodd;stroke:none;stroke-width:1px;stroke-linecap:butt;stroke-linejoin:miter;stroke-opacity:1" d="m 99.312378,743.71137 c 1.356942,4.63869 6.087332,16.55244 5.223812,21.54646 -3.97785,9.12562 -9.539572,12.59405 -11.761299,22.30502 -0.951932,5.34243 18.599519,21.85854 24.214479,19.2474 7.17233,-4.34808 10.98357,-13.34363 10.86546,-17.38476 -0.77831,-19.43426 -13.16868,-33.19626 -13.6164,-55.56915 z"></path>
      <path style="fill:#000000;fill-opacity:1;fill-rule:evenodd;stroke:none;stroke-width:1px;stroke-linecap:butt;stroke-linejoin:miter;stroke-opacity:1" d="m 128.52177,684.93516 c 46.74633,15.51693 66.83889,-16.27548 109.09748,-24.48481 12.11701,-2.3539 24.18389,2.32491 33.4817,4.16336 20.10867,4.51419 4.22782,31.73865 -11.12198,25.40944 -36.55813,-16.13394 -67.90561,8.15603 -102.60538,15.75123 -2.56615,0.41461 -4.13405,-2.70999 -5.7732,-4.83223 -5.31005,-6.87503 -13.32357,-1.20308 -19.85872,-3.34769 z"></path>
      <path style="fill:#000000;fill-opacity:1;fill-rule:evenodd;stroke:none;stroke-width:1px;stroke-linecap:butt;stroke-linejoin:miter;stroke-opacity:1" d="m 183.56224,691.9042 -31.76516,6.91681 c 9.85021,10.81876 -13.47538,53.48216 -25.20301,81.45969 l 28.50682,-3.84691 c 2.86369,-29.1146 21.0972,-56.08602 28.46135,-84.52959 z"></path>
      <path style="fill:#000000;fill-opacity:1;fill-rule:evenodd;stroke:none;stroke-width:1px;stroke-linecap:butt;stroke-linejoin:miter;stroke-opacity:1" d="m 114.44574,721.80311 c 15.7995,34.88788 69.14952,-14.0007 103.23262,-11.18105 l 0,19.4218 c -34.97155,-5.66636 -93.65276,35.5377 -107.63487,6.71249 z"></path>
      <path style="fill:#000000;fill-opacity:1;fill-rule:evenodd;stroke:none;stroke-width:1px;stroke-linecap:butt;stroke-linejoin:miter;stroke-opacity:1" d="m 210.5717,701.26372 c -2.78547,-0.46571 -10.74507,7.25181 -10.72639,10.04644 0.68906,24.48817 0.0838,48.42955 -2.14675,72.91772 -0.80858,11.46836 23.90304,2.38393 24.92498,-3.04856 3.43539,-25.63932 1.95788,-74.42799 -0.25808,-75.63801 -3.42035,-2.01357 -6.72578,-3.3576 -11.79376,-4.27759 z"></path>
      <path style="fill:#000000;fill-opacity:1;fill-rule:evenodd;stroke:none;stroke-width:1px;stroke-linecap:butt;stroke-linejoin:miter;stroke-opacity:1" d="m 112.95927,778.81549 c 109.31862,-31.08806 166.20953,-8.22783 169.39263,-2.25441 2.14803,3.27773 1.68381,10.10921 -0.57407,13.53111 -18.85836,25.07686 -119.62667,-39.36712 -165.06741,10.70831 z"></path>
    </g>
  </g></g>
    <rect x="719.5" y="83.5" width="101" height="136" rx="9.5" fill="none" stroke="#ffffff" stroke-opacity="0.42" stroke-width="1"/>
  </g>
  <g filter="url(#sh)">
    <rect x="828" y="89" width="104" height="139" rx="11" fill="#9F7045"/>
    <rect x="828" y="82" width="104" height="139" rx="11" fill="#F7F0DD" stroke="rgba(27,27,42,0.40)" stroke-width="1"/>
    <g transform="translate(835.00,91.50) scale(0.3000)"><g transform="translate(0,-652.36216)">
    <g>
      <g transform="translate(1034.3429,648.88567)">
        <path d="m -973.89996,230.33452 c 101.51009,10.77646 95.08642,-15.76217 180.06105,-18.57669 18.88461,-2.74566 17.63524,-17.45957 -0.44879,-16.01707 -90.36841,2.24313 -58.77943,34.93937 -177.69318,16.09165 -28.99732,-5.17596 -24.26375,14.56756 -1.91908,18.50211 z" style="fill:#b93c3c;fill-opacity:1;fill-rule:evenodd;stroke:none;stroke-width:1px;stroke-linecap:butt;stroke-linejoin:miter;stroke-opacity:1"></path>
        <path d="m -882.63587,187.13598 c 1.31149,-3.92427 -7.9972,-10.18109 -13.21935,-3.47239 -4.83118,7.47941 -6.26401,12.15587 -10.86019,17.41995 -1.95819,2.39301 -2.24128,7.72517 -0.21694,9.26756 7.56831,6.19882 6.72442,4.78418 11.49965,14.73834 l 20.53068,-1.76196 c -6.51994,-8.58948 -7.59705,-7.83487 -10.13116,-16.42437 -1.16483,-9.32704 -0.80813,-10.17567 2.39731,-19.76713 z" style="fill:#b93c3c;fill-opacity:1;fill-rule:evenodd;stroke:none;stroke-width:1px;stroke-linecap:butt;stroke-linejoin:miter;stroke-opacity:1"></path>
        <path d="m -856.84278,149.17395 c -2.07241,-2.1647 -3.30957,-2.93207 -6.21343,0 l -15.39121,15.54072 c -1.34759,1.50043 -1.37158,3.7049 -0.26356,4.96996 l 9.16958,8.83355 c 4.35362,4.25203 5.46399,7.31404 2.89974,12.33575 -3.41972,9.61649 -5.98603,19.36747 -6.09656,24.7078 l 21.1809,-3.48708 c -3.95944,-9.81743 -3.87088,-12.35734 2.86523,-21.64648 5.55911,-6.32692 10.93309,-7.7739 5.99542,-16.41723 z" style="fill:#b93c3c;fill-opacity:1;fill-rule:evenodd;stroke:none;stroke-width:1px;stroke-linecap:butt;stroke-linejoin:miter;stroke-opacity:1"></path>
        <path d="m -834.43931,229.52922 c -2.37961,3.3e-4 -5.11545,0.35227 -7.98633,0.67579 -25.98124,4.23953 -44.63197,13.66167 -87.7832,12.14062 -5.84133,0.0296 -10.79709,3.10802 -10.5918,7.58984 0.41578,9.89302 7.70014,62.17673 8.30469,66.88868 0.85285,6.41756 9.79015,6.98803 10.96679,1.34179 0.21553,-1.03423 0.2214,-3.95763 0.0977,-7.99609 0.54781,-1.14352 1.39786,-2.02021 2.30859,-2.18359 l 56.98242,-5.0918 c 0.57955,0.007 1.01412,0.54453 1.32032,1.33008 -0.4418,20.09339 -0.68432,39.74185 -0.25391,46.62304 0.12358,1.52015 0.0514,3.12015 1.57031,4.48635 3.62687,3.0336 24.10801,1.3634 29.40821,-1.9473 1.46854,-1.0778 1.9999,-1.583 2.19726,-3.83006 -2.96095,-33.99173 -0.66802,-77.2174 1.60547,-110.87305 0.59643,-7.45293 -2.91134,-9.15502 -8.14648,-9.1543 z m -26.98047,16.76368 c 5.65219,-1.38928 2.02203,15.82857 0.0879,15.87695 l -58.82813,4.61133 c -5.12716,-1.0242 -4.8804,-13.06608 -1.42188,-13.22852 26.63848,-0.89616 35.74375,-3.18112 60.16211,-7.25976 z m -0.12891,29.15234 c 1.70565,-0.1306 2.01753,12.38455 -0.38086,12.58598 l -57.32031,4.79687 c -4.10107,-1.15065 -4.35221,-11.96168 -0.7793,-12.49218 z" style="fill:#b93c3c;fill-opacity:1;fill-rule:evenodd;stroke:none;stroke-width:1px;stroke-linecap:butt;stroke-linejoin:miter;stroke-opacity:1"></path>
        <path d="m -881.54242,246.32019 -19.23296,0.63476 -5.29091,90.55948 c -0.75114,10.29193 4.49195,20.6109 11.24113,20.7628 l 18.7421,-6.5465 z" style="fill:#b93c3c;fill-opacity:1;fill-rule:evenodd;stroke:none;stroke-width:1px;stroke-linecap:butt;stroke-linejoin:miter;stroke-opacity:1"></path>
        <path d="m -942.63635,354.94033 0.84624,8.0276 c 54.24616,18.2836 41.63669,-8.576 96.89447,-15.15097 l -0.63469,-4.92845 c -42.24197,-2.98719 -64.35269,13.17942 -97.10602,12.05182 z" style="fill:#b93c3c;fill-opacity:1;fill-rule:evenodd;stroke:none;stroke-width:1px;stroke-linecap:butt;stroke-linejoin:miter;stroke-opacity:1"></path>
        <path d="m -947.81557,295.50699 c -4.79067,-14.34919 -18.0476,-11.53087 -15.5695,0.88508 13.89663,43.4482 17.94173,67.49746 19.79888,70.85866 10.79236,18.2285 18.40255,13.4537 19.07847,-2.4339 0.11137,-4.8491 -14.23436,-43.49455 -23.30785,-69.30984 z" style="fill:#b93c3c;fill-opacity:1;fill-rule:evenodd;stroke:none;stroke-width:1px;stroke-linecap:butt;stroke-linejoin:miter;stroke-opacity:1"></path>
        <path d="m -990.50324,324.51204 c -8.35911,-1.30406 -7.60048,9.08422 -3.31653,11.28821 59.84729,26.46758 123.8383,-8.86564 177.96674,-5.69096 2.05825,0.36905 5.31253,1.56409 8.29438,3.20196 9.55669,5.04809 3.73393,19.51008 -0.97638,22.47878 -21.53617,9.8449 -16.51418,0.091 -40.67325,11.2497 -2.27744,1.4605 -8.25717,2.5966 -10.48172,1.6848 -8.94326,-2.9779 -16.30179,-8.1024 -22.15012,-12.6641 l -11.18847,5.6458 c 6.90544,8.6009 17.09988,12.6716 25.54075,16.3714 6.74722,3.2135 14.12571,2.8541 19.02891,3.0056 25.10802,0.3448 48.58902,-9.2971 60.40286,-10.7554 3.45799,-0.5303 7.48318,-6.5254 9.05051,-9.3096 9.69143,-15.8724 5.68822,-18.57024 -1.08565,-35.18913 -3.84938,-6.23214 -14.98024,-8.01151 -20.8275,-8.80455 -60.71768,-2.57426 -138.25414,18.81176 -189.58453,7.48749 z" style="fill:#b93c3c;fill-opacity:1;fill-rule:evenodd;stroke:none;stroke-width:1px;stroke-linecap:butt;stroke-linejoin:miter;stroke-opacity:1"></path>
      </g>
      <g>
        <path d="m 138.7313,661.52206 c -6.6616,-6.95081 -9.1444,-5.77088 -14.0104,-1.95112 -3.9,3.99773 -7.6141,6.22696 -9.4029,14.14555 -0.9672,4.35856 -0.1357,13.04214 1.9511,20.48664 1.2872,3.66163 6.0191,7.38107 11.0053,8.77999 1.7089,0.54178 -0.6227,8.67159 -2.4389,13.00739 l 18.2103,-0.97556 c -1.542,-4.90025 -5.4918,-12.83803 -4.5526,-14.30813 5.0996,-7.98175 10.8344,-18.72384 10.8605,-22.76293 0.07,-3.68127 -5.6263,-10.16306 -11.6224,-16.42183 z" style="fill:#000000;fill-opacity:1;fill-rule:evenodd;stroke:none;stroke-width:1px;stroke-linecap:butt;stroke-linejoin:miter;stroke-opacity:1"></path>
        <path d="m 64.5497,730.18985 c -11.5923,-1.20004 -23.5395,-15.84843 3.0287,-14.30813 42.5006,3.24585 75.1937,-0.24655 131.6891,-25.61069 6.9088,-1.68598 58.3245,12.34434 60.4325,17.55997 2.6536,7.90859 -1.0286,30.33113 -12.6659,29.49377 -16.4723,-5.20503 -53.4279,-24.45551 -66.3743,-20.98316 -49.4555,12.15852 -66.6379,17.11767 -116.1101,13.84824 z" style="fill:#000000;fill-opacity:1;fill-rule:evenodd;stroke:none;stroke-width:1px;stroke-linecap:butt;stroke-linejoin:miter;stroke-opacity:1"></path>
        <path d="m 133.8713,733.00545 c -4.023,-2.1393 -24.469,13.50502 -24.8969,16.38959 -0.8458,5.32517 4.7863,12.9199 2.2994,14.18942 -35.1381,18.20437 -47.3832,19.28361 -65.468,22.48717 -21.4243,4.19792 -16.0723,15.92019 0,14.16461 50.8401,-5.29518 39.7211,-11.78632 92.1741,-21.98182 4.0787,-0.89675 11.8687,-18.05755 11.8687,-24.79233 0,-5.72987 -10.2767,-17.43517 -15.9773,-20.45664 z" style="fill:#000000;fill-opacity:1;fill-rule:evenodd;stroke:none;stroke-width:1px;stroke-linecap:butt;stroke-linejoin:miter;stroke-opacity:1"></path>
        <path d="m 160.5072,742.24577 c -2.0319,-0.11794 -2.5658,0.66243 -2.0807,1.81406 10.9073,25.89761 58.7952,61.45832 61.3263,56.12107 7.4362,-17.11962 5.1809,-19.57145 2.0287,-24.69006 -11.8554,-19.09585 -43.2116,-31.98957 -61.2743,-33.24507 z" style="fill:#000000;fill-opacity:1;fill-rule:evenodd;stroke:none;stroke-width:1px;stroke-linecap:butt;stroke-linejoin:miter;stroke-opacity:1"></path>
      </g>
    </g>
  </g></g>
    <rect x="829.5" y="83.5" width="101" height="136" rx="9.5" fill="none" stroke="#ffffff" stroke-opacity="0.42" stroke-width="1"/>
  </g>
  <g filter="url(#sh)">
    <rect x="938" y="89" width="104" height="139" rx="11" fill="#9F7045"/>
    <rect x="938" y="82" width="104" height="139" rx="11" fill="#F7F0DD" stroke="rgba(27,27,42,0.40)" stroke-width="1"/>
    <g transform="translate(945.00,91.50) scale(0.3000)"><g transform="translate(0,-652.36216)">
    <g transform="translate(1034.3429,648.88567)">
      <path style="fill:#b93c3c;fill-opacity:1;fill-rule:evenodd;stroke:none;stroke-width:1px;stroke-linecap:butt;stroke-linejoin:miter;stroke-opacity:1" d="m -973.89996,230.33452 c 101.51009,10.77646 95.08642,-15.76217 180.06105,-18.57669 18.88461,-2.74566 17.63524,-17.45957 -0.44879,-16.01707 -90.36841,2.24313 -58.77943,34.93937 -177.69318,16.09165 -28.99732,-5.17596 -24.26375,14.56756 -1.91908,18.50211 z"></path>
      <path style="fill:#b93c3c;fill-opacity:1;fill-rule:evenodd;stroke:none;stroke-width:1px;stroke-linecap:butt;stroke-linejoin:miter;stroke-opacity:1" d="m -882.63587,187.13598 c 1.31149,-3.92427 -7.9972,-10.18109 -13.21935,-3.47239 -4.83118,7.47941 -6.26401,12.15587 -10.86019,17.41995 -1.95819,2.39301 -2.24128,7.72517 -0.21694,9.26756 7.56831,6.19882 6.72442,4.78418 11.49965,14.73834 l 20.53068,-1.76196 c -6.51994,-8.58948 -7.59705,-7.83487 -10.13116,-16.42437 -1.16483,-9.32704 -0.80813,-10.17567 2.39731,-19.76713 z"></path>
      <path style="fill:#b93c3c;fill-opacity:1;fill-rule:evenodd;stroke:none;stroke-width:1px;stroke-linecap:butt;stroke-linejoin:miter;stroke-opacity:1" d="m -856.84278,149.17395 c -2.07241,-2.1647 -3.30957,-2.93207 -6.21343,0 l -15.39121,15.54072 c -1.34759,1.50043 -1.37158,3.7049 -0.26356,4.96996 l 9.16958,8.83355 c 4.35362,4.25203 5.46399,7.31404 2.89974,12.33575 -3.41972,9.61649 -5.98603,19.36747 -6.09656,24.7078 l 21.1809,-3.48708 c -3.95944,-9.81743 -3.87088,-12.35734 2.86523,-21.64648 5.55911,-6.32692 10.93309,-7.7739 5.99542,-16.41723 z"></path>
      <path style="fill:#b93c3c;fill-opacity:1;fill-rule:evenodd;stroke:none;stroke-width:1px;stroke-linecap:butt;stroke-linejoin:miter;stroke-opacity:1" d="m -834.43931,229.52922 c -2.37961,3.3e-4 -5.11545,0.35227 -7.98633,0.67579 -25.98124,4.23953 -44.63197,13.66167 -87.7832,12.14062 -5.84133,0.0296 -10.79709,3.10802 -10.5918,7.58984 0.41578,9.89302 7.70014,62.17673 8.30469,66.88868 0.85285,6.41756 9.79015,6.98803 10.96679,1.34179 0.21553,-1.03423 0.2214,-3.95763 0.0977,-7.99609 0.54781,-1.14352 1.39786,-2.02021 2.30859,-2.18359 l 56.98242,-5.0918 c 0.57955,0.007 1.01412,0.54453 1.32032,1.33008 -0.4418,20.09339 -0.68432,39.74185 -0.25391,46.62304 0.12358,1.52015 0.0514,3.12015 1.57031,4.48635 3.62687,3.0336 24.10801,1.3634 29.40821,-1.9473 1.46854,-1.0778 1.9999,-1.583 2.19726,-3.83006 -2.96095,-33.99173 -0.66802,-77.2174 1.60547,-110.87305 0.59643,-7.45293 -2.91134,-9.15502 -8.14648,-9.1543 z m -26.98047,16.76368 c 5.65219,-1.38928 2.02203,15.82857 0.0879,15.87695 l -58.82813,4.61133 c -5.12716,-1.0242 -4.8804,-13.06608 -1.42188,-13.22852 26.63848,-0.89616 35.74375,-3.18112 60.16211,-7.25976 z m -0.12891,29.15234 c 1.70565,-0.1306 2.01753,12.38455 -0.38086,12.58598 l -57.32031,4.79687 c -4.10107,-1.15065 -4.35221,-11.96168 -0.7793,-12.49218 z"></path>
      <path style="fill:#b93c3c;fill-opacity:1;fill-rule:evenodd;stroke:none;stroke-width:1px;stroke-linecap:butt;stroke-linejoin:miter;stroke-opacity:1" d="m -881.54242,246.32019 -19.23296,0.63476 -5.29091,90.55948 c -0.75114,10.29193 4.49195,20.6109 11.24113,20.7628 l 18.7421,-6.5465 z"></path>
      <path style="fill:#b93c3c;fill-opacity:1;fill-rule:evenodd;stroke:none;stroke-width:1px;stroke-linecap:butt;stroke-linejoin:miter;stroke-opacity:1" d="m -942.63635,354.94033 0.84624,8.0276 c 54.24616,18.2836 41.63669,-8.576 96.89447,-15.15097 l -0.63469,-4.92845 c -42.24197,-2.98719 -64.35269,13.17942 -97.10602,12.05182 z"></path>
      <path style="fill:#b93c3c;fill-opacity:1;fill-rule:evenodd;stroke:none;stroke-width:1px;stroke-linecap:butt;stroke-linejoin:miter;stroke-opacity:1" d="m -947.81557,295.50699 c -4.79067,-14.34919 -18.0476,-11.53087 -15.5695,0.88508 13.89663,43.4482 17.94173,67.49746 19.79888,70.85866 10.79236,18.2285 18.40255,13.4537 19.07847,-2.4339 0.11137,-4.8491 -14.23436,-43.49455 -23.30785,-69.30984 z"></path>
      <path style="fill:#b93c3c;fill-opacity:1;fill-rule:evenodd;stroke:none;stroke-width:1px;stroke-linecap:butt;stroke-linejoin:miter;stroke-opacity:1" d="m -990.50324,324.51204 c -8.35911,-1.30406 -7.60048,9.08422 -3.31653,11.28821 59.84729,26.46758 123.8383,-8.86564 177.96674,-5.69096 2.05825,0.36905 5.31253,1.56409 8.29438,3.20196 9.55669,5.04809 3.73393,19.51008 -0.97638,22.47878 -21.53617,9.8449 -16.51418,0.091 -40.67325,11.2497 -2.27744,1.4605 -8.25717,2.5966 -10.48172,1.6848 -8.94326,-2.9779 -16.30179,-8.1024 -22.15012,-12.6641 l -11.18847,5.6458 c 6.90544,8.6009 17.09988,12.6716 25.54075,16.3714 6.74722,3.2135 14.12571,2.8541 19.02891,3.0056 25.10802,0.3448 48.58902,-9.2971 60.40286,-10.7554 3.45799,-0.5303 7.48318,-6.5254 9.05051,-9.3096 9.69143,-15.8724 5.68822,-18.57024 -1.08565,-35.18913 -3.84938,-6.23214 -14.98024,-8.01151 -20.8275,-8.80455 -60.71768,-2.57426 -138.25414,18.81176 -189.58453,7.48749 z"></path>
    </g>
    <g transform="matrix(1.1103116,0,0,1,-20.0629,0)">
      <path style="fill:#000000;fill-opacity:1;fill-rule:evenodd;stroke:none;stroke-width:1px;stroke-linecap:butt;stroke-linejoin:miter;stroke-opacity:1" d="m 122.12365,655.71644 c -9.04375,-1.38864 -18.45494,18.7911 -19.0105,23.98575 1.47894,11.46445 10.50381,15.44155 11.95913,20.17827 6.50446,25.75105 8.4039,67.28056 10.49584,75.3199 2.20074,8.02132 55.9263,13.84495 59.72476,11.7353 11.84665,-8.00981 17.24866,-31.32164 6.85982,-29.21397 -21.90078,3.13098 -39.53972,3.41801 -44.17005,0.63215 -3.97158,-2.69778 -12.89187,-48.4919 -10.86615,-52.66272 2.48997,-5.51509 11.95588,-12.68542 10.81645,-17.48596 -1.03414,-5.10364 -15.0153,-30.79118 -25.8093,-32.48872 z"></path>
      <path style="fill:#000000;fill-opacity:1;fill-rule:evenodd;stroke:none;stroke-width:1px;stroke-linecap:butt;stroke-linejoin:miter;stroke-opacity:1" d="M 71.063411,776.82976 C 59.009706,777.70468 60.345873,760.83508 70.622258,758.0431 209.49254,737.5656 108.95092,704.0102 237.90225,682.07575 c 5.62581,-1.10813 4.97456,27.02373 -0.70918,27.69935 -129.99354,18.71741 -22.68823,40.7935 -166.129659,67.05466 z"></path>
    </g>
  </g></g>
    <rect x="939.5" y="83.5" width="101" height="136" rx="9.5" fill="none" stroke="#ffffff" stroke-opacity="0.42" stroke-width="1"/>
  </g>
  <g filter="url(#sh)">
    <rect x="1048" y="89" width="104" height="139" rx="11" fill="#9F7045"/>
    <rect x="1048" y="82" width="104" height="139" rx="11" fill="#F7F0DD" stroke="rgba(27,27,42,0.40)" stroke-width="1"/>
    <g transform="translate(1055.00,91.50) scale(0.3000)"><g transform="translate(0,-652.36216)">
    <g>
      <g transform="translate(1034.3429,648.88567)">
        <path d="m -973.89996,230.33452 c 101.51009,10.77646 95.08642,-15.76217 180.06105,-18.57669 18.88461,-2.74566 17.63524,-17.45957 -0.44879,-16.01707 -90.36841,2.24313 -58.77943,34.93937 -177.69318,16.09165 -28.99732,-5.17596 -24.26375,14.56756 -1.91908,18.50211 z" style="fill:#b93c3c;fill-opacity:1;fill-rule:evenodd;stroke:none;stroke-width:1px;stroke-linecap:butt;stroke-linejoin:miter;stroke-opacity:1"></path>
        <path d="m -882.63587,187.13598 c 1.31149,-3.92427 -7.9972,-10.18109 -13.21935,-3.47239 -4.83118,7.47941 -6.26401,12.15587 -10.86019,17.41995 -1.95819,2.39301 -2.24128,7.72517 -0.21694,9.26756 7.56831,6.19882 6.72442,4.78418 11.49965,14.73834 l 20.53068,-1.76196 c -6.51994,-8.58948 -7.59705,-7.83487 -10.13116,-16.42437 -1.16483,-9.32704 -0.80813,-10.17567 2.39731,-19.76713 z" style="fill:#b93c3c;fill-opacity:1;fill-rule:evenodd;stroke:none;stroke-width:1px;stroke-linecap:butt;stroke-linejoin:miter;stroke-opacity:1"></path>
        <path d="m -856.84278,149.17395 c -2.07241,-2.1647 -3.30957,-2.93207 -6.21343,0 l -15.39121,15.54072 c -1.34759,1.50043 -1.37158,3.7049 -0.26356,4.96996 l 9.16958,8.83355 c 4.35362,4.25203 5.46399,7.31404 2.89974,12.33575 -3.41972,9.61649 -5.98603,19.36747 -6.09656,24.7078 l 21.1809,-3.48708 c -3.95944,-9.81743 -3.87088,-12.35734 2.86523,-21.64648 5.55911,-6.32692 10.93309,-7.7739 5.99542,-16.41723 z" style="fill:#b93c3c;fill-opacity:1;fill-rule:evenodd;stroke:none;stroke-width:1px;stroke-linecap:butt;stroke-linejoin:miter;stroke-opacity:1"></path>
        <path d="m -834.43931,229.52922 c -2.37961,3.3e-4 -5.11545,0.35227 -7.98633,0.67579 -25.98124,4.23953 -44.63197,13.66167 -87.7832,12.14062 -5.84133,0.0296 -10.79709,3.10802 -10.5918,7.58984 0.41578,9.89302 7.70014,62.17673 8.30469,66.88868 0.85285,6.41756 9.79015,6.98803 10.96679,1.34179 0.21553,-1.03423 0.2214,-3.95763 0.0977,-7.99609 0.54781,-1.14352 1.39786,-2.02021 2.30859,-2.18359 l 56.98242,-5.0918 c 0.57955,0.007 1.01412,0.54453 1.32032,1.33008 -0.4418,20.09339 -0.68432,39.74185 -0.25391,46.62304 0.12358,1.52015 0.0514,3.12015 1.57031,4.48635 3.62687,3.0336 24.10801,1.3634 29.40821,-1.9473 1.46854,-1.0778 1.9999,-1.583 2.19726,-3.83006 -2.96095,-33.99173 -0.66802,-77.2174 1.60547,-110.87305 0.59643,-7.45293 -2.91134,-9.15502 -8.14648,-9.1543 z m -26.98047,16.76368 c 5.65219,-1.38928 2.02203,15.82857 0.0879,15.87695 l -58.82813,4.61133 c -5.12716,-1.0242 -4.8804,-13.06608 -1.42188,-13.22852 26.63848,-0.89616 35.74375,-3.18112 60.16211,-7.25976 z m -0.12891,29.15234 c 1.70565,-0.1306 2.01753,12.38455 -0.38086,12.58598 l -57.32031,4.79687 c -4.10107,-1.15065 -4.35221,-11.96168 -0.7793,-12.49218 z" style="fill:#b93c3c;fill-opacity:1;fill-rule:evenodd;stroke:none;stroke-width:1px;stroke-linecap:butt;stroke-linejoin:miter;stroke-opacity:1"></path>
        <path d="m -881.54242,246.32019 -19.23296,0.63476 -5.29091,90.55948 c -0.75114,10.29193 4.49195,20.6109 11.24113,20.7628 l 18.7421,-6.5465 z" style="fill:#b93c3c;fill-opacity:1;fill-rule:evenodd;stroke:none;stroke-width:1px;stroke-linecap:butt;stroke-linejoin:miter;stroke-opacity:1"></path>
        <path d="m -942.63635,354.94033 0.84624,8.0276 c 54.24616,18.2836 41.63669,-8.576 96.89447,-15.15097 l -0.63469,-4.92845 c -42.24197,-2.98719 -64.35269,13.17942 -97.10602,12.05182 z" style="fill:#b93c3c;fill-opacity:1;fill-rule:evenodd;stroke:none;stroke-width:1px;stroke-linecap:butt;stroke-linejoin:miter;stroke-opacity:1"></path>
        <path d="m -947.81557,295.50699 c -4.79067,-14.34919 -18.0476,-11.53087 -15.5695,0.88508 13.89663,43.4482 17.94173,67.49746 19.79888,70.85866 10.79236,18.2285 18.40255,13.4537 19.07847,-2.4339 0.11137,-4.8491 -14.23436,-43.49455 -23.30785,-69.30984 z" style="fill:#b93c3c;fill-opacity:1;fill-rule:evenodd;stroke:none;stroke-width:1px;stroke-linecap:butt;stroke-linejoin:miter;stroke-opacity:1"></path>
        <path d="m -990.50324,324.51204 c -8.35911,-1.30406 -7.60048,9.08422 -3.31653,11.28821 59.84729,26.46758 123.8383,-8.86564 177.96674,-5.69096 2.05825,0.36905 5.31253,1.56409 8.29438,3.20196 9.55669,5.04809 3.73393,19.51008 -0.97638,22.47878 -21.53617,9.8449 -16.51418,0.091 -40.67325,11.2497 -2.27744,1.4605 -8.25717,2.5966 -10.48172,1.6848 -8.94326,-2.9779 -16.30179,-8.1024 -22.15012,-12.6641 l -11.18847,5.6458 c 6.90544,8.6009 17.09988,12.6716 25.54075,16.3714 6.74722,3.2135 14.12571,2.8541 19.02891,3.0056 25.10802,0.3448 48.58902,-9.2971 60.40286,-10.7554 3.45799,-0.5303 7.48318,-6.5254 9.05051,-9.3096 9.69143,-15.8724 5.68822,-18.57024 -1.08565,-35.18913 -3.84938,-6.23214 -14.98024,-8.01151 -20.8275,-8.80455 -60.71768,-2.57426 -138.25414,18.81176 -189.58453,7.48749 z" style="fill:#b93c3c;fill-opacity:1;fill-rule:evenodd;stroke:none;stroke-width:1px;stroke-linecap:butt;stroke-linejoin:miter;stroke-opacity:1"></path>
      </g>
      <g transform="matrix(0.92702391,0,0,1.0503994,15.0386,-40.624854)">
        <path d="m 114.0761,734.8528 c -5.28616,-0.85407 -14.805908,18.76719 -18.704926,21.30127 -22.082335,14.12373 -39.340383,15.36743 -63.567255,21.64549 -12.721217,3.36603 -11.360075,14.21856 3.418439,11.8164 24.396476,-4.90767 96.499612,-10.34096 102.983592,-36.95124 2.05404,-10.19543 -13.81066,-15.1829 -24.12985,-17.81192 z" style="fill:#000000;fill-opacity:1;fill-rule:evenodd;stroke:none;stroke-width:1px;stroke-linecap:butt;stroke-linejoin:miter;stroke-opacity:1"></path>
        <path d="m 124.63085,691.12602 c 1.76248,-4.83916 16.21347,-12.94701 26.26906,-14.50456 10.20046,-0.98621 29.49486,43.70883 36.95666,50.26387 14.31491,11.39763 91.83537,46.43368 86.4741,63.54135 -3.2343,9.64522 -61.69009,-17.15445 -92.22719,-31.81371 C 164.95619,747.83945 151.50266,729.48888 142.98717,707.86691 141.4678,703.089 122.774,695.70076 124.63085,691.12602 Z" style="fill:#000000;fill-opacity:1;fill-rule:evenodd;stroke:none;stroke-width:1px;stroke-linecap:butt;stroke-linejoin:miter;stroke-opacity:1"></path>
      </g>
    </g>
  </g></g>
    <rect x="1049.5" y="83.5" width="101" height="136" rx="9.5" fill="none" stroke="#ffffff" stroke-opacity="0.42" stroke-width="1"/>
  </g>
  <g filter="url(#sh)">
    <rect x="1158" y="89" width="104" height="139" rx="11" fill="#9F7045"/>
    <rect x="1158" y="82" width="104" height="139" rx="11" fill="#F7F0DD" stroke="rgba(27,27,42,0.40)" stroke-width="1"/>
    <g transform="translate(1165.00,91.50) scale(0.3000)"><g transform="translate(0,-652.36216)">
    <g>
      <g transform="translate(1034.3429,648.88567)">
        <path d="m -973.89996,230.33452 c 101.51009,10.77646 95.08642,-15.76217 180.06105,-18.57669 18.88461,-2.74566 17.63524,-17.45957 -0.44879,-16.01707 -90.36841,2.24313 -58.77943,34.93937 -177.69318,16.09165 -28.99732,-5.17596 -24.26375,14.56756 -1.91908,18.50211 z" style="fill:#b93c3c;fill-opacity:1;fill-rule:evenodd;stroke:none;stroke-width:1px;stroke-linecap:butt;stroke-linejoin:miter;stroke-opacity:1"></path>
        <path d="m -882.63587,187.13598 c 1.31149,-3.92427 -7.9972,-10.18109 -13.21935,-3.47239 -4.83118,7.47941 -6.26401,12.15587 -10.86019,17.41995 -1.95819,2.39301 -2.24128,7.72517 -0.21694,9.26756 7.56831,6.19882 6.72442,4.78418 11.49965,14.73834 l 20.53068,-1.76196 c -6.51994,-8.58948 -7.59705,-7.83487 -10.13116,-16.42437 -1.16483,-9.32704 -0.80813,-10.17567 2.39731,-19.76713 z" style="fill:#b93c3c;fill-opacity:1;fill-rule:evenodd;stroke:none;stroke-width:1px;stroke-linecap:butt;stroke-linejoin:miter;stroke-opacity:1"></path>
        <path d="m -856.84278,149.17395 c -2.07241,-2.1647 -3.30957,-2.93207 -6.21343,0 l -15.39121,15.54072 c -1.34759,1.50043 -1.37158,3.7049 -0.26356,4.96996 l 9.16958,8.83355 c 4.35362,4.25203 5.46399,7.31404 2.89974,12.33575 -3.41972,9.61649 -5.98603,19.36747 -6.09656,24.7078 l 21.1809,-3.48708 c -3.95944,-9.81743 -3.87088,-12.35734 2.86523,-21.64648 5.55911,-6.32692 10.93309,-7.7739 5.99542,-16.41723 z" style="fill:#b93c3c;fill-opacity:1;fill-rule:evenodd;stroke:none;stroke-width:1px;stroke-linecap:butt;stroke-linejoin:miter;stroke-opacity:1"></path>
        <path d="m -834.43931,229.52922 c -2.37961,3.3e-4 -5.11545,0.35227 -7.98633,0.67579 -25.98124,4.23953 -44.63197,13.66167 -87.7832,12.14062 -5.84133,0.0296 -10.79709,3.10802 -10.5918,7.58984 0.41578,9.89302 7.70014,62.17673 8.30469,66.88868 0.85285,6.41756 9.79015,6.98803 10.96679,1.34179 0.21553,-1.03423 0.2214,-3.95763 0.0977,-7.99609 0.54781,-1.14352 1.39786,-2.02021 2.30859,-2.18359 l 56.98242,-5.0918 c 0.57955,0.007 1.01412,0.54453 1.32032,1.33008 -0.4418,20.09339 -0.68432,39.74185 -0.25391,46.62304 0.12358,1.52015 0.0514,3.12015 1.57031,4.48635 3.62687,3.0336 24.10801,1.3634 29.40821,-1.9473 1.46854,-1.0778 1.9999,-1.583 2.19726,-3.83006 -2.96095,-33.99173 -0.66802,-77.2174 1.60547,-110.87305 0.59643,-7.45293 -2.91134,-9.15502 -8.14648,-9.1543 z m -26.98047,16.76368 c 5.65219,-1.38928 2.02203,15.82857 0.0879,15.87695 l -58.82813,4.61133 c -5.12716,-1.0242 -4.8804,-13.06608 -1.42188,-13.22852 26.63848,-0.89616 35.74375,-3.18112 60.16211,-7.25976 z m -0.12891,29.15234 c 1.70565,-0.1306 2.01753,12.38455 -0.38086,12.58598 l -57.32031,4.79687 c -4.10107,-1.15065 -4.35221,-11.96168 -0.7793,-12.49218 z" style="fill:#b93c3c;fill-opacity:1;fill-rule:evenodd;stroke:none;stroke-width:1px;stroke-linecap:butt;stroke-linejoin:miter;stroke-opacity:1"></path>
        <path d="m -881.54242,246.32019 -19.23296,0.63476 -5.29091,90.55948 c -0.75114,10.29193 4.49195,20.6109 11.24113,20.7628 l 18.7421,-6.5465 z" style="fill:#b93c3c;fill-opacity:1;fill-rule:evenodd;stroke:none;stroke-width:1px;stroke-linecap:butt;stroke-linejoin:miter;stroke-opacity:1"></path>
        <path d="m -942.63635,354.94033 0.84624,8.0276 c 54.24616,18.2836 41.63669,-8.576 96.89447,-15.15097 l -0.63469,-4.92845 c -42.24197,-2.98719 -64.35269,13.17942 -97.10602,12.05182 z" style="fill:#b93c3c;fill-opacity:1;fill-rule:evenodd;stroke:none;stroke-width:1px;stroke-linecap:butt;stroke-linejoin:miter;stroke-opacity:1"></path>
        <path d="m -947.81557,295.50699 c -4.79067,-14.34919 -18.0476,-11.53087 -15.5695,0.88508 13.89663,43.4482 17.94173,67.49746 19.79888,70.85866 10.79236,18.2285 18.40255,13.4537 19.07847,-2.4339 0.11137,-4.8491 -14.23436,-43.49455 -23.30785,-69.30984 z" style="fill:#b93c3c;fill-opacity:1;fill-rule:evenodd;stroke:none;stroke-width:1px;stroke-linecap:butt;stroke-linejoin:miter;stroke-opacity:1"></path>
        <path d="m -990.50324,324.51204 c -8.35911,-1.30406 -7.60048,9.08422 -3.31653,11.28821 59.84729,26.46758 123.8383,-8.86564 177.96674,-5.69096 2.05825,0.36905 5.31253,1.56409 8.29438,3.20196 9.55669,5.04809 3.73393,19.51008 -0.97638,22.47878 -21.53617,9.8449 -16.51418,0.091 -40.67325,11.2497 -2.27744,1.4605 -8.25717,2.5966 -10.48172,1.6848 -8.94326,-2.9779 -16.30179,-8.1024 -22.15012,-12.6641 l -11.18847,5.6458 c 6.90544,8.6009 17.09988,12.6716 25.54075,16.3714 6.74722,3.2135 14.12571,2.8541 19.02891,3.0056 25.10802,0.3448 48.58902,-9.2971 60.40286,-10.7554 3.45799,-0.5303 7.48318,-6.5254 9.05051,-9.3096 9.69143,-15.8724 5.68822,-18.57024 -1.08565,-35.18913 -3.84938,-6.23214 -14.98024,-8.01151 -20.8275,-8.80455 -60.71768,-2.57426 -138.25414,18.81176 -189.58453,7.48749 z" style="fill:#b93c3c;fill-opacity:1;fill-rule:evenodd;stroke:none;stroke-width:1px;stroke-linecap:butt;stroke-linejoin:miter;stroke-opacity:1"></path>
      </g>
      <g transform="translate(-0.3219,0)">
        <path d="m 146.54838,677.43662 c 0.54434,-9.2727 -36.81274,-17.9586 -33.24598,-4.27126 17.95022,62.01984 -5.54222,79.38907 -66.76663,100.84189 -4.171059,1.14614 -5.268439,9.32072 1.845649,7.11565 C 112.9187,761.11914 152.22385,756.52046 146.54838,677.43662 Z" style="fill:#000000;fill-opacity:1;fill-rule:evenodd;stroke:none;stroke-width:1px;stroke-linecap:butt;stroke-linejoin:miter;stroke-opacity:1"></path>
        <path d="m 121.57594,718.65069 c -5.84347,-2.20134 -10.97704,-5.4517 -14.36291,-10.56747 -0.6003,-0.89938 -2.22977,-8.68579 1.97466,-9.14854 16.17404,-1.78017 7.17997,-6.60782 10.67327,-7.33243 21.63049,-4.4868 52.3212,-17.63183 71.64182,-22.71807 10.80219,-2.84372 17.88236,-11.073 21.27228,-10.05511 12.27112,-0.89102 13.76383,25.66912 5.86784,27.62595 -31.09527,4.56377 -48.76316,2.63772 -79.85842,11.44328 z" style="fill:#000000;fill-opacity:1;fill-rule:evenodd;stroke:none;stroke-width:1px;stroke-linecap:butt;stroke-linejoin:miter;stroke-opacity:1"></path>
        <path d="m 165.44117,679.72349 c 0.55992,-10.21772 -8.38843,-6.91831 -11.02734,3.18557 3.16535,28.79842 -18.621,73.62164 5.90075,102.0204 11.2851,13.06933 72.50888,13.30221 84.39146,4.71358 17.01662,-14.57154 7.85274,-28.29435 -2.36625,-27.88037 -19.38336,1.4505 -19.42048,-50.0732 -27.57994,-48.89888 -8.69404,1.63399 0.64114,48.83811 -6.38105,54.13434 -11.27931,8.35714 -30.81168,-3.74639 -36.18692,-11.11154 -14.7811,-20.25304 -3.422,-56.24978 -6.75071,-76.1631 z" style="fill:#000000;fill-opacity:1;fill-rule:evenodd;stroke:none;stroke-width:1px;stroke-linecap:butt;stroke-linejoin:miter;stroke-opacity:1"></path>
      </g>
    </g>
  </g></g>
    <rect x="1159.5" y="83.5" width="101" height="136" rx="9.5" fill="none" stroke="#ffffff" stroke-opacity="0.42" stroke-width="1"/>
  </g>
  <g filter="url(#sh)">
    <rect x="1268" y="89" width="104" height="139" rx="11" fill="#9F7045"/>
    <rect x="1268" y="82" width="104" height="139" rx="11" fill="#F7F0DD" stroke="rgba(27,27,42,0.40)" stroke-width="1"/>
    <g transform="translate(1275.00,91.50) scale(0.3000)"><g transform="translate(0,-652.36216)">
    <g>
      <g transform="translate(1034.3429,648.88567)">
        <path d="m -973.89996,230.33452 c 101.51009,10.77646 95.08642,-15.76217 180.06105,-18.57669 18.88461,-2.74566 17.63524,-17.45957 -0.44879,-16.01707 -90.36841,2.24313 -58.77943,34.93937 -177.69318,16.09165 -28.99732,-5.17596 -24.26375,14.56756 -1.91908,18.50211 z" style="fill:#b93c3c;fill-opacity:1;fill-rule:evenodd;stroke:none;stroke-width:1px;stroke-linecap:butt;stroke-linejoin:miter;stroke-opacity:1"></path>
        <path d="m -882.63587,187.13598 c 1.31149,-3.92427 -7.9972,-10.18109 -13.21935,-3.47239 -4.83118,7.47941 -6.26401,12.15587 -10.86019,17.41995 -1.95819,2.39301 -2.24128,7.72517 -0.21694,9.26756 7.56831,6.19882 6.72442,4.78418 11.49965,14.73834 l 20.53068,-1.76196 c -6.51994,-8.58948 -7.59705,-7.83487 -10.13116,-16.42437 -1.16483,-9.32704 -0.80813,-10.17567 2.39731,-19.76713 z" style="fill:#b93c3c;fill-opacity:1;fill-rule:evenodd;stroke:none;stroke-width:1px;stroke-linecap:butt;stroke-linejoin:miter;stroke-opacity:1"></path>
        <path d="m -856.84278,149.17395 c -2.07241,-2.1647 -3.30957,-2.93207 -6.21343,0 l -15.39121,15.54072 c -1.34759,1.50043 -1.37158,3.7049 -0.26356,4.96996 l 9.16958,8.83355 c 4.35362,4.25203 5.46399,7.31404 2.89974,12.33575 -3.41972,9.61649 -5.98603,19.36747 -6.09656,24.7078 l 21.1809,-3.48708 c -3.95944,-9.81743 -3.87088,-12.35734 2.86523,-21.64648 5.55911,-6.32692 10.93309,-7.7739 5.99542,-16.41723 z" style="fill:#b93c3c;fill-opacity:1;fill-rule:evenodd;stroke:none;stroke-width:1px;stroke-linecap:butt;stroke-linejoin:miter;stroke-opacity:1"></path>
        <path d="m -834.43931,229.52922 c -2.37961,3.3e-4 -5.11545,0.35227 -7.98633,0.67579 -25.98124,4.23953 -44.63197,13.66167 -87.7832,12.14062 -5.84133,0.0296 -10.79709,3.10802 -10.5918,7.58984 0.41578,9.89302 7.70014,62.17673 8.30469,66.88868 0.85285,6.41756 9.79015,6.98803 10.96679,1.34179 0.21553,-1.03423 0.2214,-3.95763 0.0977,-7.99609 0.54781,-1.14352 1.39786,-2.02021 2.30859,-2.18359 l 56.98242,-5.0918 c 0.57955,0.007 1.01412,0.54453 1.32032,1.33008 -0.4418,20.09339 -0.68432,39.74185 -0.25391,46.62304 0.12358,1.52015 0.0514,3.12015 1.57031,4.48635 3.62687,3.0336 24.10801,1.3634 29.40821,-1.9473 1.46854,-1.0778 1.9999,-1.583 2.19726,-3.83006 -2.96095,-33.99173 -0.66802,-77.2174 1.60547,-110.87305 0.59643,-7.45293 -2.91134,-9.15502 -8.14648,-9.1543 z m -26.98047,16.76368 c 5.65219,-1.38928 2.02203,15.82857 0.0879,15.87695 l -58.82813,4.61133 c -5.12716,-1.0242 -4.8804,-13.06608 -1.42188,-13.22852 26.63848,-0.89616 35.74375,-3.18112 60.16211,-7.25976 z m -0.12891,29.15234 c 1.70565,-0.1306 2.01753,12.38455 -0.38086,12.58598 l -57.32031,4.79687 c -4.10107,-1.15065 -4.35221,-11.96168 -0.7793,-12.49218 z" style="fill:#b93c3c;fill-opacity:1;fill-rule:evenodd;stroke:none;stroke-width:1px;stroke-linecap:butt;stroke-linejoin:miter;stroke-opacity:1"></path>
        <path d="m -881.54242,246.32019 -19.23296,0.63476 -5.29091,90.55948 c -0.75114,10.29193 4.49195,20.6109 11.24113,20.7628 l 18.7421,-6.5465 z" style="fill:#b93c3c;fill-opacity:1;fill-rule:evenodd;stroke:none;stroke-width:1px;stroke-linecap:butt;stroke-linejoin:miter;stroke-opacity:1"></path>
        <path d="m -942.63635,354.94033 0.84624,8.0276 c 54.24616,18.2836 41.63669,-8.576 96.89447,-15.15097 l -0.63469,-4.92845 c -42.24197,-2.98719 -64.35269,13.17942 -97.10602,12.05182 z" style="fill:#b93c3c;fill-opacity:1;fill-rule:evenodd;stroke:none;stroke-width:1px;stroke-linecap:butt;stroke-linejoin:miter;stroke-opacity:1"></path>
        <path d="m -947.81557,295.50699 c -4.79067,-14.34919 -18.0476,-11.53087 -15.5695,0.88508 13.89663,43.4482 17.94173,67.49746 19.79888,70.85866 10.79236,18.2285 18.40255,13.4537 19.07847,-2.4339 0.11137,-4.8491 -14.23436,-43.49455 -23.30785,-69.30984 z" style="fill:#b93c3c;fill-opacity:1;fill-rule:evenodd;stroke:none;stroke-width:1px;stroke-linecap:butt;stroke-linejoin:miter;stroke-opacity:1"></path>
        <path d="m -990.50324,324.51204 c -8.35911,-1.30406 -7.60048,9.08422 -3.31653,11.28821 59.84729,26.46758 123.8383,-8.86564 177.96674,-5.69096 2.05825,0.36905 5.31253,1.56409 8.29438,3.20196 9.55669,5.04809 3.73393,19.51008 -0.97638,22.47878 -21.53617,9.8449 -16.51418,0.091 -40.67325,11.2497 -2.27744,1.4605 -8.25717,2.5966 -10.48172,1.6848 -8.94326,-2.9779 -16.30179,-8.1024 -22.15012,-12.6641 l -11.18847,5.6458 c 6.90544,8.6009 17.09988,12.6716 25.54075,16.3714 6.74722,3.2135 14.12571,2.8541 19.02891,3.0056 25.10802,0.3448 48.58902,-9.2971 60.40286,-10.7554 3.45799,-0.5303 7.48318,-6.5254 9.05051,-9.3096 9.69143,-15.8724 5.68822,-18.57024 -1.08565,-35.18913 -3.84938,-6.23214 -14.98024,-8.01151 -20.8275,-8.80455 -60.71768,-2.57426 -138.25414,18.81176 -189.58453,7.48749 z" style="fill:#b93c3c;fill-opacity:1;fill-rule:evenodd;stroke:none;stroke-width:1px;stroke-linecap:butt;stroke-linejoin:miter;stroke-opacity:1"></path>
      </g>
      <g transform="translate(-0.3219,0)">
        <path d="m 146.54838,677.43662 c 0.54434,-9.2727 -36.81274,-17.9586 -33.24598,-4.27126 17.95022,62.01984 -5.54222,79.38907 -66.76663,100.84189 -4.171059,1.14614 -5.268439,9.32072 1.845649,7.11565 C 112.9187,761.11914 152.22385,756.52046 146.54838,677.43662 Z" style="fill:#000000;fill-opacity:1;fill-rule:evenodd;stroke:none;stroke-width:1px;stroke-linecap:butt;stroke-linejoin:miter;stroke-opacity:1"></path>
        <path d="m 121.57594,718.65069 c -5.84347,-2.20134 -10.97704,-5.4517 -14.36291,-10.56747 -0.6003,-0.89938 -2.22977,-8.68579 1.97466,-9.14854 16.17404,-1.78017 7.17997,-6.60782 10.67327,-7.33243 21.63049,-4.4868 52.3212,-17.63183 71.64182,-22.71807 10.80219,-2.84372 17.88236,-11.073 21.27228,-10.05511 12.27112,-0.89102 13.76383,25.66912 5.86784,27.62595 -31.09527,4.56377 -48.76316,2.63772 -79.85842,11.44328 z" style="fill:#000000;fill-opacity:1;fill-rule:evenodd;stroke:none;stroke-width:1px;stroke-linecap:butt;stroke-linejoin:miter;stroke-opacity:1"></path>
        <path d="m 165.44117,679.72349 c 0.55992,-10.21772 -8.38843,-6.91831 -11.02734,3.18557 3.16535,28.79842 -18.621,73.62164 5.90075,102.0204 11.2851,13.06933 72.50888,13.30221 84.39146,4.71358 17.01662,-14.57154 7.85274,-28.29435 -2.36625,-27.88037 -19.38336,1.4505 -19.42048,-50.0732 -27.57994,-48.89888 -8.69404,1.63399 0.64114,48.83811 -6.38105,54.13434 -11.27931,8.35714 -30.81168,-3.74639 -36.18692,-11.11154 -14.7811,-20.25304 -3.422,-56.24978 -6.75071,-76.1631 z" style="fill:#000000;fill-opacity:1;fill-rule:evenodd;stroke:none;stroke-width:1px;stroke-linecap:butt;stroke-linejoin:miter;stroke-opacity:1"></path>
      </g>
    </g>
  </g></g>
    <rect x="1269.5" y="83.5" width="101" height="136" rx="9.5" fill="none" stroke="#ffffff" stroke-opacity="0.42" stroke-width="1"/>
  </g>
  <g filter="url(#sh)">
    <rect x="1378" y="89" width="104" height="139" rx="11" fill="#9F7045"/>
    <rect x="1378" y="82" width="104" height="139" rx="11" fill="#F7F0DD" stroke="rgba(27,27,42,0.40)" stroke-width="1"/>
    <g transform="translate(1385.00,91.50) scale(0.3000)"><g transform="translate(0,-652.36216)">
    <g>
      <g transform="translate(1034.3429,648.88567)">
        <path d="m -973.89996,230.33452 c 101.51009,10.77646 95.08642,-15.76217 180.06105,-18.57669 18.88461,-2.74566 17.63524,-17.45957 -0.44879,-16.01707 -90.36841,2.24313 -58.77943,34.93937 -177.69318,16.09165 -28.99732,-5.17596 -24.26375,14.56756 -1.91908,18.50211 z" style="fill:#b93c3c;fill-opacity:1;fill-rule:evenodd;stroke:none;stroke-width:1px;stroke-linecap:butt;stroke-linejoin:miter;stroke-opacity:1"></path>
        <path d="m -882.63587,187.13598 c 1.31149,-3.92427 -7.9972,-10.18109 -13.21935,-3.47239 -4.83118,7.47941 -6.26401,12.15587 -10.86019,17.41995 -1.95819,2.39301 -2.24128,7.72517 -0.21694,9.26756 7.56831,6.19882 6.72442,4.78418 11.49965,14.73834 l 20.53068,-1.76196 c -6.51994,-8.58948 -7.59705,-7.83487 -10.13116,-16.42437 -1.16483,-9.32704 -0.80813,-10.17567 2.39731,-19.76713 z" style="fill:#b93c3c;fill-opacity:1;fill-rule:evenodd;stroke:none;stroke-width:1px;stroke-linecap:butt;stroke-linejoin:miter;stroke-opacity:1"></path>
        <path d="m -856.84278,149.17395 c -2.07241,-2.1647 -3.30957,-2.93207 -6.21343,0 l -15.39121,15.54072 c -1.34759,1.50043 -1.37158,3.7049 -0.26356,4.96996 l 9.16958,8.83355 c 4.35362,4.25203 5.46399,7.31404 2.89974,12.33575 -3.41972,9.61649 -5.98603,19.36747 -6.09656,24.7078 l 21.1809,-3.48708 c -3.95944,-9.81743 -3.87088,-12.35734 2.86523,-21.64648 5.55911,-6.32692 10.93309,-7.7739 5.99542,-16.41723 z" style="fill:#b93c3c;fill-opacity:1;fill-rule:evenodd;stroke:none;stroke-width:1px;stroke-linecap:butt;stroke-linejoin:miter;stroke-opacity:1"></path>
        <path d="m -834.43931,229.52922 c -2.37961,3.3e-4 -5.11545,0.35227 -7.98633,0.67579 -25.98124,4.23953 -44.63197,13.66167 -87.7832,12.14062 -5.84133,0.0296 -10.79709,3.10802 -10.5918,7.58984 0.41578,9.89302 7.70014,62.17673 8.30469,66.88868 0.85285,6.41756 9.79015,6.98803 10.96679,1.34179 0.21553,-1.03423 0.2214,-3.95763 0.0977,-7.99609 0.54781,-1.14352 1.39786,-2.02021 2.30859,-2.18359 l 56.98242,-5.0918 c 0.57955,0.007 1.01412,0.54453 1.32032,1.33008 -0.4418,20.09339 -0.68432,39.74185 -0.25391,46.62304 0.12358,1.52015 0.0514,3.12015 1.57031,4.48635 3.62687,3.0336 24.10801,1.3634 29.40821,-1.9473 1.46854,-1.0778 1.9999,-1.583 2.19726,-3.83006 -2.96095,-33.99173 -0.66802,-77.2174 1.60547,-110.87305 0.59643,-7.45293 -2.91134,-9.15502 -8.14648,-9.1543 z m -26.98047,16.76368 c 5.65219,-1.38928 2.02203,15.82857 0.0879,15.87695 l -58.82813,4.61133 c -5.12716,-1.0242 -4.8804,-13.06608 -1.42188,-13.22852 26.63848,-0.89616 35.74375,-3.18112 60.16211,-7.25976 z m -0.12891,29.15234 c 1.70565,-0.1306 2.01753,12.38455 -0.38086,12.58598 l -57.32031,4.79687 c -4.10107,-1.15065 -4.35221,-11.96168 -0.7793,-12.49218 z" style="fill:#b93c3c;fill-opacity:1;fill-rule:evenodd;stroke:none;stroke-width:1px;stroke-linecap:butt;stroke-linejoin:miter;stroke-opacity:1"></path>
        <path d="m -881.54242,246.32019 -19.23296,0.63476 -5.29091,90.55948 c -0.75114,10.29193 4.49195,20.6109 11.24113,20.7628 l 18.7421,-6.5465 z" style="fill:#b93c3c;fill-opacity:1;fill-rule:evenodd;stroke:none;stroke-width:1px;stroke-linecap:butt;stroke-linejoin:miter;stroke-opacity:1"></path>
        <path d="m -942.63635,354.94033 0.84624,8.0276 c 54.24616,18.2836 41.63669,-8.576 96.89447,-15.15097 l -0.63469,-4.92845 c -42.24197,-2.98719 -64.35269,13.17942 -97.10602,12.05182 z" style="fill:#b93c3c;fill-opacity:1;fill-rule:evenodd;stroke:none;stroke-width:1px;stroke-linecap:butt;stroke-linejoin:miter;stroke-opacity:1"></path>
        <path d="m -947.81557,295.50699 c -4.79067,-14.34919 -18.0476,-11.53087 -15.5695,0.88508 13.89663,43.4482 17.94173,67.49746 19.79888,70.85866 10.79236,18.2285 18.40255,13.4537 19.07847,-2.4339 0.11137,-4.8491 -14.23436,-43.49455 -23.30785,-69.30984 z" style="fill:#b93c3c;fill-opacity:1;fill-rule:evenodd;stroke:none;stroke-width:1px;stroke-linecap:butt;stroke-linejoin:miter;stroke-opacity:1"></path>
        <path d="m -990.50324,324.51204 c -8.35911,-1.30406 -7.60048,9.08422 -3.31653,11.28821 59.84729,26.46758 123.8383,-8.86564 177.96674,-5.69096 2.05825,0.36905 5.31253,1.56409 8.29438,3.20196 9.55669,5.04809 3.73393,19.51008 -0.97638,22.47878 -21.53617,9.8449 -16.51418,0.091 -40.67325,11.2497 -2.27744,1.4605 -8.25717,2.5966 -10.48172,1.6848 -8.94326,-2.9779 -16.30179,-8.1024 -22.15012,-12.6641 l -11.18847,5.6458 c 6.90544,8.6009 17.09988,12.6716 25.54075,16.3714 6.74722,3.2135 14.12571,2.8541 19.02891,3.0056 25.10802,0.3448 48.58902,-9.2971 60.40286,-10.7554 3.45799,-0.5303 7.48318,-6.5254 9.05051,-9.3096 9.69143,-15.8724 5.68822,-18.57024 -1.08565,-35.18913 -3.84938,-6.23214 -14.98024,-8.01151 -20.8275,-8.80455 -60.71768,-2.57426 -138.25414,18.81176 -189.58453,7.48749 z" style="fill:#b93c3c;fill-opacity:1;fill-rule:evenodd;stroke:none;stroke-width:1px;stroke-linecap:butt;stroke-linejoin:miter;stroke-opacity:1"></path>
      </g>
      <g transform="translate(-0.3219,0)">
        <path d="m 146.54838,677.43662 c 0.54434,-9.2727 -36.81274,-17.9586 -33.24598,-4.27126 17.95022,62.01984 -5.54222,79.38907 -66.76663,100.84189 -4.171059,1.14614 -5.268439,9.32072 1.845649,7.11565 C 112.9187,761.11914 152.22385,756.52046 146.54838,677.43662 Z" style="fill:#000000;fill-opacity:1;fill-rule:evenodd;stroke:none;stroke-width:1px;stroke-linecap:butt;stroke-linejoin:miter;stroke-opacity:1"></path>
        <path d="m 121.57594,718.65069 c -5.84347,-2.20134 -10.97704,-5.4517 -14.36291,-10.56747 -0.6003,-0.89938 -2.22977,-8.68579 1.97466,-9.14854 16.17404,-1.78017 7.17997,-6.60782 10.67327,-7.33243 21.63049,-4.4868 52.3212,-17.63183 71.64182,-22.71807 10.80219,-2.84372 17.88236,-11.073 21.27228,-10.05511 12.27112,-0.89102 13.76383,25.66912 5.86784,27.62595 -31.09527,4.56377 -48.76316,2.63772 -79.85842,11.44328 z" style="fill:#000000;fill-opacity:1;fill-rule:evenodd;stroke:none;stroke-width:1px;stroke-linecap:butt;stroke-linejoin:miter;stroke-opacity:1"></path>
        <path d="m 165.44117,679.72349 c 0.55992,-10.21772 -8.38843,-6.91831 -11.02734,3.18557 3.16535,28.79842 -18.621,73.62164 5.90075,102.0204 11.2851,13.06933 72.50888,13.30221 84.39146,4.71358 17.01662,-14.57154 7.85274,-28.29435 -2.36625,-27.88037 -19.38336,1.4505 -19.42048,-50.0732 -27.57994,-48.89888 -8.69404,1.63399 0.64114,48.83811 -6.38105,54.13434 -11.27931,8.35714 -30.81168,-3.74639 -36.18692,-11.11154 -14.7811,-20.25304 -3.422,-56.24978 -6.75071,-76.1631 z" style="fill:#000000;fill-opacity:1;fill-rule:evenodd;stroke:none;stroke-width:1px;stroke-linecap:butt;stroke-linejoin:miter;stroke-opacity:1"></path>
      </g>
    </g>
  </g></g>
    <rect x="1379.5" y="83.5" width="101" height="136" rx="9.5" fill="none" stroke="#ffffff" stroke-opacity="0.42" stroke-width="1"/>
  </g>
  <circle cx="1586.0" cy="45" r="5" fill="#D2B450"/>
  <g filter="url(#glow)">
    <rect x="1534" y="65" width="104" height="139" rx="11" fill="#9F7045"/>
    <rect x="1534" y="58" width="104" height="139" rx="11" fill="#F7F0DD" stroke="#D2B450" stroke-width="2.2"/>
    <g transform="translate(1541.00,67.50) scale(0.3000)"><g transform="translate(0,-652.36216)">
    <g>
      <path style="fill:#000000;fill-opacity:1;fill-rule:evenodd;stroke:none;stroke-width:1px;stroke-linecap:butt;stroke-linejoin:miter;stroke-opacity:1" d="m 52.894354,722.32216 c -17.50696,-0.11271 -9.05357,18.89889 -0.90638,19.47161 56.421096,12.31796 92.339806,-11.63681 131.424976,-9.52501 20.67898,2.05086 53.82412,11.04089 61.51362,15.63063 1.63798,0.97768 3.97814,0.74093 4.99547,0.20017 8.33935,-4.39359 7.71325,-25.10483 4.35766,-36.85299 -0.93149,-3.48692 -8.66932,-7.71099 -15.05624,0.17833 -2.0941,2.11098 -10.8512,0.64005 -12.70543,-0.6243 -8.37862,-5.71316 -31.44441,-11.18628 -43.55827,-8.08264 -46.22841,9.75766 -82.7463,26.55006 -130.065406,19.6042 z"></path>
      <g transform="translate(1034.3429,648.88567)">
        <path d="m -973.89996,230.33452 c 101.51009,10.77646 95.08642,-15.76217 180.06105,-18.57669 18.88461,-2.74566 17.63524,-17.45957 -0.44879,-16.01707 -90.36841,2.24313 -58.77943,34.93937 -177.69318,16.09165 -28.99732,-5.17596 -24.26375,14.56756 -1.91908,18.50211 z" style="fill:#b93c3c;fill-opacity:1;fill-rule:evenodd;stroke:none;stroke-width:1px;stroke-linecap:butt;stroke-linejoin:miter;stroke-opacity:1"></path>
        <path d="m -882.63587,187.13598 c 1.31149,-3.92427 -7.9972,-10.18109 -13.21935,-3.47239 -4.83118,7.47941 -6.26401,12.15587 -10.86019,17.41995 -1.95819,2.39301 -2.24128,7.72517 -0.21694,9.26756 7.56831,6.19882 6.72442,4.78418 11.49965,14.73834 l 20.53068,-1.76196 c -6.51994,-8.58948 -7.59705,-7.83487 -10.13116,-16.42437 -1.16483,-9.32704 -0.80813,-10.17567 2.39731,-19.76713 z" style="fill:#b93c3c;fill-opacity:1;fill-rule:evenodd;stroke:none;stroke-width:1px;stroke-linecap:butt;stroke-linejoin:miter;stroke-opacity:1"></path>
        <path d="m -856.84278,149.17395 c -2.07241,-2.1647 -3.30957,-2.93207 -6.21343,0 l -15.39121,15.54072 c -1.34759,1.50043 -1.37158,3.7049 -0.26356,4.96996 l 9.16958,8.83355 c 4.35362,4.25203 5.46399,7.31404 2.89974,12.33575 -3.41972,9.61649 -5.98603,19.36747 -6.09656,24.7078 l 21.1809,-3.48708 c -3.95944,-9.81743 -3.87088,-12.35734 2.86523,-21.64648 5.55911,-6.32692 10.93309,-7.7739 5.99542,-16.41723 z" style="fill:#b93c3c;fill-opacity:1;fill-rule:evenodd;stroke:none;stroke-width:1px;stroke-linecap:butt;stroke-linejoin:miter;stroke-opacity:1"></path>
        <path d="m -834.43931,229.52922 c -2.37961,3.3e-4 -5.11545,0.35227 -7.98633,0.67579 -25.98124,4.23953 -44.63197,13.66167 -87.7832,12.14062 -5.84133,0.0296 -10.79709,3.10802 -10.5918,7.58984 0.41578,9.89302 7.70014,62.17673 8.30469,66.88868 0.85285,6.41756 9.79015,6.98803 10.96679,1.34179 0.21553,-1.03423 0.2214,-3.95763 0.0977,-7.99609 0.54781,-1.14352 1.39786,-2.02021 2.30859,-2.18359 l 56.98242,-5.0918 c 0.57955,0.007 1.01412,0.54453 1.32032,1.33008 -0.4418,20.09339 -0.68432,39.74185 -0.25391,46.62304 0.12358,1.52015 0.0514,3.12015 1.57031,4.48635 3.62687,3.0336 24.10801,1.3634 29.40821,-1.9473 1.46854,-1.0778 1.9999,-1.583 2.19726,-3.83006 -2.96095,-33.99173 -0.66802,-77.2174 1.60547,-110.87305 0.59643,-7.45293 -2.91134,-9.15502 -8.14648,-9.1543 z m -26.98047,16.76368 c 5.65219,-1.38928 2.02203,15.82857 0.0879,15.87695 l -58.82813,4.61133 c -5.12716,-1.0242 -4.8804,-13.06608 -1.42188,-13.22852 26.63848,-0.89616 35.74375,-3.18112 60.16211,-7.25976 z m -0.12891,29.15234 c 1.70565,-0.1306 2.01753,12.38455 -0.38086,12.58598 l -57.32031,4.79687 c -4.10107,-1.15065 -4.35221,-11.96168 -0.7793,-12.49218 z" style="fill:#b93c3c;fill-opacity:1;fill-rule:evenodd;stroke:none;stroke-width:1px;stroke-linecap:butt;stroke-linejoin:miter;stroke-opacity:1"></path>
        <path d="m -881.54242,246.32019 -19.23296,0.63476 -5.29091,90.55948 c -0.75114,10.29193 4.49195,20.6109 11.24113,20.7628 l 18.7421,-6.5465 z" style="fill:#b93c3c;fill-opacity:1;fill-rule:evenodd;stroke:none;stroke-width:1px;stroke-linecap:butt;stroke-linejoin:miter;stroke-opacity:1"></path>
        <path d="m -942.63635,354.94033 0.84624,8.0276 c 54.24616,18.2836 41.63669,-8.576 96.89447,-15.15097 l -0.63469,-4.92845 c -42.24197,-2.98719 -64.35269,13.17942 -97.10602,12.05182 z" style="fill:#b93c3c;fill-opacity:1;fill-rule:evenodd;stroke:none;stroke-width:1px;stroke-linecap:butt;stroke-linejoin:miter;stroke-opacity:1"></path>
        <path d="m -947.81557,295.50699 c -4.79067,-14.34919 -18.0476,-11.53087 -15.5695,0.88508 13.89663,43.4482 17.94173,67.49746 19.79888,70.85866 10.79236,18.2285 18.40255,13.4537 19.07847,-2.4339 0.11137,-4.8491 -14.23436,-43.49455 -23.30785,-69.30984 z" style="fill:#b93c3c;fill-opacity:1;fill-rule:evenodd;stroke:none;stroke-width:1px;stroke-linecap:butt;stroke-linejoin:miter;stroke-opacity:1"></path>
        <path d="m -990.50324,324.51204 c -8.35911,-1.30406 -7.60048,9.08422 -3.31653,11.28821 59.84729,26.46758 123.8383,-8.86564 177.96674,-5.69096 2.05825,0.36905 5.31253,1.56409 8.29438,3.20196 9.55669,5.04809 3.73393,19.51008 -0.97638,22.47878 -21.53617,9.8449 -16.51418,0.091 -40.67325,11.2497 -2.27744,1.4605 -8.25717,2.5966 -10.48172,1.6848 -8.94326,-2.9779 -16.30179,-8.1024 -22.15012,-12.6641 l -11.18847,5.6458 c 6.90544,8.6009 17.09988,12.6716 25.54075,16.3714 6.74722,3.2135 14.12571,2.8541 19.02891,3.0056 25.10802,0.3448 48.58902,-9.2971 60.40286,-10.7554 3.45799,-0.5303 7.48318,-6.5254 9.05051,-9.3096 9.69143,-15.8724 5.68822,-18.57024 -1.08565,-35.18913 -3.84938,-6.23214 -14.98024,-8.01151 -20.8275,-8.80455 -60.71768,-2.57426 -138.25414,18.81176 -189.58453,7.48749 z" style="fill:#b93c3c;fill-opacity:1;fill-rule:evenodd;stroke:none;stroke-width:1px;stroke-linecap:butt;stroke-linejoin:miter;stroke-opacity:1"></path>
      </g>
    </g>
  </g></g>
    <rect x="1535.5" y="59.5" width="101" height="136" rx="9.5" fill="none" stroke="#ffffff" stroke-opacity="0.42" stroke-width="1"/>
  </g>
</svg>
